<?xml version="1.0" encoding="utf-8"?>
<svg version="1.1" id="Illustration" xmlns="http://www.w3.org/2000/svg" x="0px" y="0px" viewBox="0 0 1200 800" style="enable-background:new 0 0 1200 800;" xmlns:bx="https://boxy-svg.com" width="1200px" height="800px"><defs><linearGradient gradientUnits="userSpaceOnUse" x1="631.284" y1="74.679" x2="631.284" y2="718.816" id="gradient-0" spreadMethod="pad" gradientTransform="matrix(-0.018244, -0.999834, 1.555936, -0.028391, 25.143698, 1042.97384)"><stop offset="0" style="stop-color: rgb(0, 0, 182);"/><stop offset="1" style="stop-color: rgb(255, 0, 193);"/></linearGradient><bx:export><bx:file format="svg"/></bx:export><linearGradient gradientUnits="userSpaceOnUse" x1="631.284" y1="74.679" x2="631.284" y2="718.816" id="gradient-1" spreadMethod="pad" gradientTransform="matrix(-0.018244, -0.999834, 1.555936, -0.028391, 25.330353, 1042.557732)"><stop offset="0" style="stop-color: rgb(0, 0, 182);"/><stop offset="1" style="stop-color: rgb(255, 0, 193);"/></linearGradient></defs><g><defs><rect id="SVGID_1_" width="1200" height="800"/></defs><clipPath id="SVGID_00000160181423745300627450000012505583883763522181_"><rect width="1200" height="800" style="overflow: visible;"/></clipPath><g style="clip-path:url(#SVGID_00000160181423745300627450000012505583883763522181_);"><g style="opacity:0.7;"><path style="paint-order: fill; fill: url(&quot;#gradient-1&quot;); stroke-width: 1; stroke: rgb(255, 255, 255);" d="M 212.466 351.159 C 185.981 301.044 127.539 256.345 141.275 193.6 C 154.232 134.432 242.696 79.68 298.919 114.352 C 334.721 136.431 350.899 169.898 396.689 175.127 C 431.745 179.13 477.14 176.885 504.849 152.19 C 526.138 133.217 539.513 112.179 565.872 98.235 C 611.523 74.084 666.566 71.456 717.159 76.248 C 790.79 83.221 820.116 160.229 883.93 184.49 C 923.04 199.361 967.58 193.236 1007.4 184.567 C 1044.34 176.524 1093.74 152.953 1121.81 191.077 C 1148.74 227.656 1139.47 301.641 1119.23 339.747 C 1105.39 365.812 1072.22 376.046 1060.29 403.944 C 1048.09 432.477 1067.23 458.446 1085.78 479.495 C 1128.45 527.912 1121.02 673.146 1037.42 677.736 C 997.4 679.933 957.3 659.873 917.48 669.855 C 884.84 678.036 863.66 708.912 829.09 712.373 C 796.254 715.661 764.583 709.201 734.758 696.089 C 700.913 681.209 669.258 662.595 631.696 658.386 C 596.106 654.398 557.243 657.43 521.751 661.43 C 491.623 664.826 461.873 671.366 433.652 682.399 C 406.941 692.842 381.806 711.719 352.601 714.569 C 284.604 721.204 196.316 725.815 147.191 669.348 C 116.872 634.498 118.17 581.722 143.456 544.545 C 158.693 522.143 189.097 516.755 202.841 496.693 C 224.671 464.814 230.753 385.762 212.466 351.159 Z" id="path-1"/><path style="opacity: 0.5; paint-order: fill; fill: url(&quot;#gradient-0&quot;);" d="M212.279,351.575 c-26.485-50.115-84.927-94.814-71.191-157.559c12.957-59.168,101.421-113.92,157.644-79.248 c35.802,22.079,51.98,55.546,97.77,60.775c35.056,4.003,80.451,1.758,108.16-22.937c21.289-18.973,34.664-40.011,61.023-53.955 c45.651-24.151,100.694-26.779,151.287-21.987c73.631,6.973,102.957,83.981,166.768,108.242 c39.114,14.871,83.656,8.746,123.471,0.077c36.938-8.043,86.341-31.614,114.409,6.51c26.93,36.579,17.661,110.564-2.574,148.67 c-13.841,26.065-47.014,36.299-58.94,64.197c-12.198,28.533,6.938,54.502,25.489,75.551 c42.669,48.417,35.237,193.651-48.364,198.241c-40.013,2.197-80.113-17.863-119.939-7.881 c-32.642,8.181-53.82,39.057-88.389,42.518c-32.836,3.288-64.507-3.172-94.332-16.284c-33.845-14.88-65.5-33.494-103.062-37.703 c-35.59-3.988-74.453-0.956-109.945,3.044c-30.128,3.396-59.878,9.936-88.099,20.969c-26.711,10.443-51.846,29.32-81.051,32.17 c-67.997,6.635-156.285,11.246-205.41-45.221c-30.319-34.85-29.021-87.626-3.735-124.803 c15.237-22.402,45.641-27.79,59.385-47.852C224.484,465.23,230.566,386.178,212.279,351.575z" id="object-0"/><path style="opacity: 0.5; fill: rgb(0, 234, 255);" d="M229.662,360.992 c-20.523-37.94-59.211-69.18-68.129-112.461c-8.352-40.533,15.919-76.336,50.386-98.129 c32.541-20.576,68.735-27.407,103.895-8.471c31.805,17.13,51.428,49.781,90.5,54.14c33.615,3.75,77.145,1.647,103.715-21.49 c20.414-17.776,33.239-37.485,58.515-50.55c43.774-22.626,96.556-25.089,145.07-20.6c70.605,6.533,98.725,78.68,159.914,101.41 c37.506,13.932,80.218,8.194,118.397,0.072c35.42-7.535,82.793-29.619,109.707,6.099c25.823,34.27,16.935,103.585-2.469,139.287 c-13.272,24.42-45.081,34.008-56.518,60.145c-11.696,26.732,6.653,51.062,24.442,70.783 c40.916,45.361,33.789,181.428-46.376,185.729c-38.369,2.058-76.82-16.736-115.01-7.383c-31.3,7.665-51.608,36.592-84.756,39.835 c-31.486,3.081-61.856-2.971-90.456-15.256c-32.454-13.941-62.808-31.38-98.826-35.323c-34.128-3.737-71.394-0.896-105.427,2.852 c-28.89,3.181-57.417,9.309-84.478,19.646c-25.613,9.784-49.715,27.469-77.72,30.139 c-65.202,6.217-149.862,10.536-196.969-42.367c-29.073-32.65-27.828-82.096-3.581-116.926 c14.611-20.988,43.765-26.036,56.944-44.832C241.365,467.476,247.198,393.413,229.662,360.992z"/></g><g><path style="opacity:0.2;fill:#FFFFFF;" d="M1095.958,268.601H928.144c-3.586,0-6.494-2.907-6.494-6.494l0,0 c0-3.586,2.907-6.493,6.494-6.493h167.814c3.586,0,6.494,2.907,6.494,6.493l0,0 C1102.452,265.694,1099.544,268.601,1095.958,268.601z"/><path style="opacity:0.53;fill:#FFFFFF;" d="M1116.122,294.037H948.308c-3.586,0-6.494-2.907-6.494-6.494l0,0 c0-3.586,2.907-6.493,6.494-6.493h167.814c3.586,0,6.494,2.907,6.494,6.493l0,0 C1122.615,291.13,1119.708,294.037,1116.122,294.037z"/><path style="opacity:0.53;fill:#FFFFFF;" d="M1068.401,344.91H948.308c-3.586,0-6.494-2.907-6.494-6.494l0,0 c0-3.586,2.907-6.494,6.494-6.494h120.093c3.586,0,6.494,2.907,6.494,6.494l0,0 C1074.895,342.003,1071.987,344.91,1068.401,344.91z"/><path style="opacity:0.2;fill:#FFFFFF;" d="M1134.941,319.474H967.127c-3.586,0-6.494-2.907-6.494-6.494l0,0 c0-3.586,2.907-6.493,6.494-6.493h167.814c3.586,0,6.494,2.907,6.494,6.493l0,0 C1141.435,316.566,1138.527,319.474,1134.941,319.474z"/></g><g><g><linearGradient id="SVGID_00000088114891731880770030000011235930424144474045_" gradientUnits="userSpaceOnUse" x1="90.5479" y1="421.3555" x2="312.5945" y2="421.3555"><stop offset="0" style="stop-color:#A737D5"/><stop offset="1" style="stop-color:#EF497A"/></linearGradient><path style="fill:url(#SVGID_00000088114891731880770030000011235930424144474045_);" d="M264.684,516.009 c2.834-6.848,4.555-14.044,7.844-20.716c6.975-14.149,17.336-24.862,27.385-36.667c6.905-8.111,18.693-22.492,9.024-32.823 c-4.748-5.069-12.489-5.712-18.9-4.943c-19.385,2.325-26.388,7.007-22.084-15.985c2.389-12.763,9.182-24.248,11.846-36.806 c2.694-12.697,3.985-49.615-9.559-58.324c-24.056-15.466-39.103,42.982-42.82,56.374c-0.137,0.492-0.228,1.033-0.286,1.609 c-0.157,1.559-1.337,2.819-2.882,3.079c-1.545,0.26-3.075-0.545-3.732-1.967c-0.923-1.998-1.647-3.882-1.727-5.469 c-0.392-7.768,2.021-16.33,4.051-23.764c2.749-10.066,6.541-19.867,10.527-29.5c4.527-10.941,7.199-22.355,3.283-33.872 c-3.852-11.33-11.809-20.698-18.924-30.102c-9.401-12.425-16.014-29.373-30.733-36.635c-17.386-8.577-34.84,4.402-44.165,18.846 c-15.101,23.389-6.661,49.098,4.77,71.923c8.096,16.164,28.674,40.703,28.181,60.53c-0.03,1.194-0.671,2.289-1.697,2.9 c-1.026,0.611-2.295,0.653-3.359,0.109c-3.578-1.831-6.428-5.046-9.434-8.388c-10.631-11.821-19.886-25.078-29.425-37.782 c-6.565-8.743-15.758-24.206-27.938-25.304c-14.258-1.285-14.04,25.855-12.915,34.275c5.772,43.171,45.828,64.684,66.987,99.302 c4.357,7.129,13.833,20.124,12.848,28.799c-1.897,16.699-22.358-1.771-31.271-4.522c-12.373-3.82-34.04-3.893-34.202,13.084 c-0.189,19.727,16.839,36.709,34.582,42.629c14.231,4.748,30.488,6.381,43.978,13.005c12.341,6.06,4.953,19.71-7.427,15.933 c-5.111-1.559-10.217-3.602-15.192-5.55c-4.821-1.888-19.024-9.686-22.553-2.439c-2.695,5.534,2.898,15.195,5.124,19.911 c24.949,52.856,45.504,43.154,74.321,53.49c8.275,2.968,13.872,9.687,16.862,17.777c1.29,3.49,1.159,16.599,5.142,17.781 c5.49,1.613,13.165-9.777,15.52-13.04c4.362-6.041,9.652-11.302,14.006-17.352c7.512-10.438,19.816-25.86,18.437-39.662 c-0.683-6.836-6.567-9.585-12.915-10.088c-10.747-0.85-27.792-2.868-20.947-17.684 C257.71,530.628,261.585,523.495,264.684,516.009z"/><path style="fill:#FFFFFF;" d="M242.85,635.359c-0.815,0-1.484-0.653-1.499-1.472c-0.013-0.718-1.517-72.37-17.375-120.44 c-15.778-47.825-26.732-141.376-23.895-166.489c2.477-21.917-6.246-113.731-25.188-134.629 c-2.485-2.742-5.019-4.113-7.588-4.077c-0.856,0.003-1.509-0.65-1.521-1.479c-0.012-0.828,0.65-1.509,1.479-1.521 c3.448-0.031,6.764,1.653,9.854,5.062c20.729,22.87,28.15,117.483,25.946,136.981c-2.516,22.264,7.109,114.734,23.762,165.212 c16.002,48.505,17.513,120.602,17.526,121.324c0.016,0.828-0.643,1.512-1.472,1.527 C242.869,635.359,242.859,635.359,242.85,635.359z"/></g><g><linearGradient id="SVGID_00000072959609050350496610000000585248957928265362_" gradientUnits="userSpaceOnUse" x1="179.5702" y1="486.3447" x2="339.4005" y2="486.3447" gradientTransform="matrix(0.999 0.0437 -0.0437 0.999 -91.6537 28.3385)"><stop offset="0" style="stop-color:#18459F"/><stop offset="1" style="stop-color:#2874B5"/></linearGradient><path style="fill:url(#SVGID_00000072959609050350496610000000585248957928265362_);" d="M215.697,536.406 c-6.747,1.836-28.506,19.897-27.489,4.537c1.306-19.731,22.808-35.437,24.399-55.653c0.926-11.775-10.033-18.817-20.685-20.904 c-18.685-3.659-25.242,33.228-34.549,45.655c-1.958,2.614-4.074-48.56-4.514-50.656c-1.282-6.11-4.426-17.277-10.818-20.079 c-15.459-6.777-21.432,13.31-23.195,24.892c-0.103,0.677-0.593,1.231-1.253,1.415c-0.66,0.184-1.365-0.035-1.805-0.56 c-9.867-11.79-2.295-24.27-7.865-37.923c-7.674-18.811-23.665,0.422-30.147,9.392c-11.116,15.384-13.149,36.085,4.259,48.103 c15.986,11.036,23.902,18.138,13.398,21.032c-13.759,3.792-24.775,18.498-17.868,32.454 c7.223,14.596,29.502,22.294,43.813,27.506c5.633,2.052,20.381,1.894,21.519,9.737c0.951,6.556-8.946,9.512-13.413,11.835 c-16.872,8.773-20.629,17.699-2.033,29.09c37.541,22.997,78.937,16.503,78.523-0.843c-0.186-8.189,5.333-18.154,7.93-25.64 c2.783-8.022,5.532-16.06,7.694-24.275C223.789,557.194,231.513,532.101,215.697,536.406z"/><path style="fill:#FFFFFF;" d="M202.03,625.486c-0.609,0-1.182-0.375-1.407-0.979c-0.3-0.811-30.415-81.371-61.244-105.114 c-24.211-18.647-42.581-47.552-44.67-70.292c-1.059-11.516,1.816-21.158,8.543-28.657c0.554-0.618,1.502-0.668,2.118-0.115 c0.617,0.553,0.669,1.502,0.115,2.118c-6.148,6.853-8.769,15.728-7.789,26.379c2.02,21.973,19.913,50.013,43.513,68.189 c13.261,10.213,27.769,31.25,43.123,62.525c11.394,23.209,19.027,43.719,19.104,43.923c0.288,0.777-0.109,1.64-0.885,1.928 C202.38,625.456,202.204,625.486,202.03,625.486z"/></g></g><g><path style="opacity:0.2;fill:#FFFFFF;" d="M232.873,374.952H65.059c-3.586,0-6.493-2.907-6.493-6.494l0,0 c0-3.586,2.907-6.493,6.493-6.493h167.814c3.586,0,6.494,2.907,6.494,6.493l0,0C239.366,372.045,236.459,374.952,232.873,374.952 z"/><path style="opacity:0.53;fill:#FFFFFF;" d="M253.036,400.389H85.222c-3.586,0-6.493-2.907-6.493-6.494l0,0 c0-3.586,2.907-6.493,6.493-6.493h167.814c3.586,0,6.494,2.907,6.494,6.493l0,0C259.53,397.482,256.623,400.389,253.036,400.389z "/><path style="opacity:0.53;fill:#FFFFFF;" d="M205.316,451.262H85.222c-3.586,0-6.493-2.907-6.493-6.494l0,0 c0-3.586,2.907-6.494,6.493-6.494h120.093c3.586,0,6.494,2.907,6.494,6.494l0,0C211.809,448.354,208.902,451.262,205.316,451.262 z"/><path style="opacity:0.2;fill:#FFFFFF;" d="M271.856,425.825H104.042c-3.586,0-6.494-2.907-6.494-6.494l0,0 c0-3.586,2.907-6.493,6.494-6.493h167.814c3.586,0,6.494,2.907,6.494,6.493l0,0C278.349,422.918,275.442,425.825,271.856,425.825 z"/></g><g><g><linearGradient id="SVGID_00000118388549779080447120000003997727628614162329_" gradientUnits="userSpaceOnUse" x1="469.0551" y1="661.9716" x2="617.5151" y2="216.5903"><stop offset="0" style="stop-color:#2B3582"/><stop offset="1" style="stop-color:#150E42"/></linearGradient><path style="fill:url(#SVGID_00000118388549779080447120000003997727628614162329_);" d="M852.391,678.129 c0,6.387-5.231,11.613-11.624,11.613H212.174c-6.393,0-11.624-5.226-11.624-11.613l-5.23-361.235 c0-6.387,7.525-18.857,21.316-17.919l614.331-15.896c8.022-0.207,15.778,2.88,21.458,8.542 c5.681,5.662,8.789,13.404,8.599,21.418L852.391,678.129z"/><linearGradient id="SVGID_00000106134176684895022400000009210333608450756001_" gradientUnits="userSpaceOnUse" x1="504.2493" y1="684.7469" x2="571.3702" y2="127.2671"><stop offset="0" style="stop-color:#FDF53F"/><stop offset="1" style="stop-color:#D93C65"/></linearGradient><path style="fill:url(#SVGID_00000106134176684895022400000009210333608450756001_);" d="M840.915,666.987 c0,6.049-4.949,10.997-10.997,10.997H227.333c-6.049,0-10.997-4.949-10.997-10.997l-4.936-327.932 c0.581-19.734,17.883-26.827,28.371-26.408l588.797-15.797c5.636-0.151,11.086,2.018,15.076,6.001 c3.99,3.983,6.169,9.43,6.028,15.066L840.915,666.987z"/><g><path style="fill:#FFFFFF;" d="M222.847,510.584c-0.545,0-0.991-0.438-1-0.985l-0.391-26.595 c-0.008-0.552,0.433-1.006,0.985-1.015c0.535,0.007,1.006,0.433,1.015,0.985l0.391,26.595c0.008,0.552-0.433,1.006-0.985,1.015 C222.857,510.584,222.852,510.584,222.847,510.584z"/><path style="fill:#FFFFFF;" d="M221.89,445.413c-0.545,0-0.991-0.438-0.999-0.985l-1.496-101.858 c0.031-6.836,2.138-12.297,6.264-16.25c7.498-7.184,19.224-6.822,19.718-6.804l188.017-5.045 c0.575-0.019,1.012,0.421,1.026,0.973c0.015,0.552-0.42,1.012-0.973,1.026l-188.075,5.045 c-0.533-0.016-11.438-0.354-18.33,6.249c-3.719,3.563-5.619,8.542-5.647,14.796l1.496,101.839 c0.008,0.552-0.433,1.006-0.985,1.015C221.9,445.413,221.895,445.413,221.89,445.413z"/></g><path style="opacity:0.5;fill:#FFFFFF;" d="M242.883,648.795c0.631-27.104,0.396-267.117-1.159-287.845 c-1.555-20.728,30.728-24.616,80.293-26.949c49.565-2.333,467.762-11.568,478.53-12.441 c24.203-1.963,29.213,34.214,26.792,112.751c-1.819,59.004-4.834,156.202-6.221,200.902 c-0.413,13.31-11.292,23.87-24.607,23.906c-100.636,0.276-486.342,1.382-512.019,2.146 C254.943,662.144,242.633,659.543,242.883,648.795z"/></g><linearGradient id="SVGID_00000003801559499240695500000010239929889169511829_" gradientUnits="userSpaceOnUse" x1="649.8594" y1="704.7568" x2="63.3887" y2="700.257"><stop offset="0" style="stop-color:#2B3582"/><stop offset="1" style="stop-color:#150E42"/></linearGradient><path style="fill:url(#SVGID_00000003801559499240695500000010239929889169511829_);" d="M887.515,719.729H178.169 c-8.728,0-15.87-7.141-15.87-15.87l0,0c0-8.728,7.141-15.87,15.87-15.87h709.347c8.728,0,15.87,7.141,15.87,15.87l0,0 C903.385,712.587,896.244,719.729,887.515,719.729z"/></g><linearGradient id="SVGID_00000041288447043657478770000006539604868823812273_" gradientUnits="userSpaceOnUse" x1="1180.9507" y1="65.658" x2="1244.1842" y2="65.658" gradientTransform="matrix(0.9925 0.1225 -0.1225 0.9925 -278.0958 1.468)"><stop offset="0" style="stop-color:#E40045"/><stop offset="1" style="stop-color:#5C0E16"/></linearGradient><path style="fill:url(#SVGID_00000041288447043657478770000006539604868823812273_);" d="M950.224,198.036 c-0.835-0.423-1.926-0.355-2.544,0.158l-20.495,17.034c-2.445,2.032-6.837,2.181-9.977,0.338l-7.962-4.673 c-1.688-0.991-3.826-1.443-5.869-1.243c-2.043,0.2-3.796,1.034-4.811,2.29l-14.753,18.243c-0.49,0.606-0.305,1.412,0.447,1.943 s1.87,0.645,2.696,0.275l13.701-6.136c2.865-1.283,6.763-0.83,9.28,1.078l7.726,5.858c1.697,1.287,4.088,1.95,6.414,1.777 c2.325-0.173,4.295-1.159,5.284-2.646l21.607-32.474C951.378,199.24,951.059,198.459,950.224,198.036z"/><linearGradient id="SVGID_00000153670563225085564240000010216895677555270286_" gradientUnits="userSpaceOnUse" x1="460.437" y1="-5221.6689" x2="523.6706" y2="-5221.6689" gradientTransform="matrix(0.9925 -0.1225 -0.1225 -0.9925 -278.0958 -4526.0552)"><stop offset="0" style="stop-color:#E40045"/><stop offset="1" style="stop-color:#5C0E16"/></linearGradient><path style="fill:url(#SVGID_00000153670563225085564240000010216895677555270286_);" d="M882.812,613.312 c-0.835,0.423-1.926,0.355-2.544-0.158l-20.495-17.034c-2.445-2.032-6.837-2.181-9.977-0.338l-7.962,4.672 c-1.688,0.991-3.826,1.443-5.869,1.243c-2.043-0.2-3.796-1.034-4.811-2.289l-14.753-18.243c-0.49-0.606-0.305-1.413,0.447-1.943 s1.87-0.645,2.696-0.275l13.701,6.136c2.865,1.283,6.763,0.83,9.28-1.078l7.726-5.858c1.697-1.287,4.088-1.95,6.414-1.777 c2.325,0.173,4.295,1.159,5.284,2.646l21.607,32.474C883.966,612.107,883.647,612.888,882.812,613.312z"/><g><g><linearGradient id="SVGID_00000129196074463378892210000003677043671865091731_" gradientUnits="userSpaceOnUse" x1="59.2109" y1="314.9711" x2="56.044" y2="639.563" gradientTransform="matrix(1 0 0 1 823.5171 0)"><stop offset="0" style="stop-color:#E40045"/><stop offset="1" style="stop-color:#5C0E16"/></linearGradient><path style="fill:url(#SVGID_00000129196074463378892210000003677043671865091731_);" d="M765.283,414.863 c-2.518-0.864-2.156-4.544,0.484-4.887c12.032-1.56,29.668-6.271,35.444-20.389c9.062-22.151-9.709-107.557,76.522-122.839 c79.543-14.096,123.846,11.076,122.839,84.578C999.595,422.572,885.098,455.977,765.283,414.863z"/></g><g><path style="fill:#FFFFFF;" d="M908.833,285.558c-1.39-1.806-3.333-2.704-5.291-2.444l-22.025,2.925 c-1.807,0.24-3.456,1.445-4.55,3.326c-1.094,1.881-1.534,4.267-1.215,6.586l8.671,62.988c0.313,2.276,1.331,4.288,2.817,5.567 c1.486,1.279,3.311,1.715,5.051,1.206l8.204-2.399c2.731-0.799,4.766-3.766,5.059-7.376l5.15-63.513 C910.91,289.887,910.222,287.364,908.833,285.558z"/><path style="fill:#FFFFFF;" d="M907.957,384.059c-0.604-3.968-3.289-7.059-6.408-7.059h-8.466c-3.608,0-7.082,4.254-7.082,8.931 v10.721c0,4.314,2.776,7.938,6.084,8.416l10.464,1.493c2.069,0.299,4.193-0.698,5.602-2.685 c1.409-1.987,2.037-4.841,1.634-7.488L907.957,384.059z"/></g></g><g style="opacity:0.6;"><path style="fill:#FFFFFF;" d="M616.99,261.676c-4.187-18.142-14.602-11.916-32.047-17.498 c-17.434-5.579-12.335-25.489-23.16-31.632c-14.432-8.189-27.683-0.588-36.662,10.161c-14.917,17.858-25.122,3.335-42.954,10.573 c-10.215,4.146-5.858,9.955-19.676,12.293c-9.655,1.634-20.106-2.214-29.622,0.138c-7.047,1.742-12.16,4.797-13.719,11.031 c1.99,0.855,4.051,1.628,6.173,2.327c26.642,8.768,62.986,5.841,89.913,7.133C524.417,266.642,619.957,274.534,616.99,261.676z"/><path style="fill:#FFFFFF;" d="M382.294,200.615c-4.576-5.104-11.406-7.204-18.097-5.676 c-7.293,1.665-11.415,8.029-18.202,10.574c-11.842,4.44-28.219-4.333-37.212,7.113c-11,14-19.5,3.5-19.5,13s76,2.5,113.5,3 c5.418,0.072,28.939-0.288,18.814-10.556c-3.144-3.189-7.631-3.723-11.813-4.469c-5.453-0.973-18.419-1.507-22.368-5.38 c-2.126-2.085-2.944-5.081-4.864-7.312C382.467,200.809,382.381,200.711,382.294,200.615z"/></g><g><linearGradient id="SVGID_00000090292939167976279400000004444961650445762992_" gradientUnits="userSpaceOnUse" x1="887.9489" y1="576.9498" x2="652.1809" y2="864.0499"><stop offset="0" style="stop-color:#53D8FF"/><stop offset="1" style="stop-color:#3840F7"/></linearGradient><path style="fill:url(#SVGID_00000090292939167976279400000004444961650445762992_);" d="M905.959,723.713H738.633 c-5.336,0-9.661-3.196-9.661-7.137V597.218c0-3.934,4.31-7.127,9.635-7.137l168.664-0.335c5.366-0.011,9.715,3.211,9.687,7.175 l-1.338,119.692C915.592,720.54,911.275,723.713,905.959,723.713z"/><path style="opacity:0.6;fill:#FFFFFF;" d="M897.76,598.882l-149.616,0.681c-5.408,0.025-9.768,3.28-9.742,7.276l1.044,100.386 c0.025,3.935,4.298,7.136,9.624,7.207l145.371,1.959c5.429,0.073,9.905-3.128,9.981-7.14l3.202-103.026 C907.699,602.169,903.251,598.857,897.76,598.882z"/><path style="opacity:0.6;fill:#FFFFFF;" d="M891.676,608.192v0.762c0,1.197-1.313,2.167-2.933,2.167H773.465 c-1.62,0-2.933-0.97-2.933-2.167v-0.762c0-1.197,1.313-2.166,2.933-2.166h115.278 C890.363,606.025,891.676,606.995,891.676,608.192z"/><path style="opacity:0.6;fill:#FFFFFF;" d="M878.814,617.777L878.814,617.777c-0.083,1.134-1.338,2.028-2.875,2.049 l-100.817,1.357c-1.64,0.022-2.986-0.954-2.986-2.166v-0.177c0-1.183,1.285-2.148,2.886-2.166l100.817-1.18 C877.539,615.473,878.906,616.522,878.814,617.777z"/><path style="fill:#FFFFFF;" d="M889.109,711.077c-0.033,0-0.066-0.001-0.1-0.001l-136.36-1.209 c-2.616-0.023-5.013-0.964-6.577-2.583c-1.122-1.161-1.719-2.612-1.681-4.086l3.511-70.903c0.09-3.523,3.821-6.37,8.351-6.37 c0.052,0,0.104,0,0.157,0.001l136.122,1.957c2.599,0.038,4.978,0.983,6.527,2.593c1.113,1.157,1.707,2.601,1.672,4.067 c0,0.01-0.001,0.021-0.001,0.031l-3.272,70.121C897.371,708.275,893.712,711.077,889.109,711.077z M756.253,628.706 c-2.982,0-5.523,1.674-5.575,3.693l-3.511,70.903c-0.022,0.893,0.479,1.61,0.903,2.049c1.034,1.07,2.754,1.719,4.602,1.735 l136.36,1.209c0.024,0,0.047,0.001,0.071,0.001c2.981,0,5.526-1.683,5.576-3.698l3.272-70.136 c0.017-0.914-0.477-1.624-0.896-2.059c-1.023-1.063-2.729-1.714-4.564-1.74l-136.122-1.957 C756.33,628.706,756.291,628.706,756.253,628.706z M899.34,634.511h0.007H899.34z"/><path style="fill:#FFFFFF;" d="M897.573,642.381H749.067c-0.768,0-1.39-0.622-1.39-1.39s0.622-1.39,1.39-1.39h148.506 c0.768,0,1.39,0.622,1.39,1.39S898.341,642.381,897.573,642.381z"/></g><g><g><g><linearGradient id="SVGID_00000065782645473771032310000010160357946366812820_" gradientUnits="userSpaceOnUse" x1="-22.855" y1="177.5015" x2="-24.7976" y2="376.6" gradientTransform="matrix(1 0 0 1 823.5171 0)"><stop offset="0" style="stop-color:#E40045"/><stop offset="1" style="stop-color:#5C0E16"/></linearGradient><path style="fill:url(#SVGID_00000065782645473771032310000010160357946366812820_);" d="M728.623,238.773 c-1.545-0.53-1.323-2.787,0.297-2.997c7.38-0.957,18.198-3.847,21.74-12.506c5.558-13.587-5.955-65.974,46.937-75.347 c48.79-8.646,75.965,6.794,75.347,51.878C872.346,243.502,802.116,263.992,728.623,238.773z"/></g></g><g><path style="fill:#FFFFFF;" d="M821.467,217.38c-4.642,2.241-8.964,3.041-14.486,3.041c-13.206,0-24.65-9.524-24.65-25.13 c0-16.327,11.685-30.572,29.612-30.572c14.085,0,23.77,9.764,23.77,23.129c0,11.845-6.643,19.048-14.726,19.048 c-3.521,0-6.322-2.001-6.482-6.563h-0.24c-2.641,4.402-6.243,6.563-10.724,6.563c-4.962,0-8.884-3.841-8.884-10.244 c0-9.844,7.523-18.808,18.888-18.808c3.521,0,7.043,0.8,9.123,1.841l-2.561,14.646c-0.961,5.362-0.24,7.843,2.161,7.843 c3.761,0.16,8.163-4.722,8.163-13.926c0-11.044-6.803-19.128-19.207-19.128c-12.645,0-23.45,9.844-23.45,25.61 c0,13.366,8.643,21.209,20.488,21.209c4.322,0,8.644-0.88,11.845-2.641L821.467,217.38z M815.624,183.686 c-0.8-0.24-1.841-0.48-3.202-0.48c-6.083,0-10.884,5.922-10.884,12.725c0,3.281,1.521,5.522,4.482,5.522 c3.761,0,7.363-4.802,8.163-9.523L815.624,183.686z"/></g></g><g><g><g><linearGradient id="SVGID_00000000219455889979262320000017308272036859105411_" gradientUnits="userSpaceOnUse" x1="-14.9757" y1="489.4044" x2="-16.9183" y2="688.5029" gradientTransform="matrix(1 0 0 1 823.5171 0)"><stop offset="0" style="stop-color:#E40045"/><stop offset="1" style="stop-color:#5C0E16"/></linearGradient><path style="fill:url(#SVGID_00000000219455889979262320000017308272036859105411_);" d="M736.503,550.676 c-1.545-0.53-1.323-2.787,0.297-2.997c7.38-0.957,18.198-3.847,21.74-12.506c5.558-13.587-5.955-65.973,46.938-75.347 c48.79-8.646,75.965,6.794,75.347,51.878C880.226,555.405,809.995,575.895,736.503,550.676z"/></g></g><g><path style="fill:#FFFFFF;" d="M802.558,536l2.081-14.886h-6.563v-6.242h7.523l1.44-10.164h-6.883v-6.163h7.763l2.081-14.566 h6.002l-2.001,14.566h7.763l2.081-14.566h6.002l-2.001,14.566h6.483v6.163h-7.443l-1.361,10.164h6.723v6.163h-7.763L822.486,536 h-6.163l2.081-14.966h-7.683L808.641,536H802.558z M819.445,514.872l1.361-10.164h-7.763l-1.36,10.164H819.445z"/></g></g><g><linearGradient id="SVGID_00000113327870024187401840000009368032514274057601_" gradientUnits="userSpaceOnUse" x1="253.7143" y1="554.026" x2="65.4198" y2="795.4294"><stop offset="0" style="stop-color:#53D8FF"/><stop offset="1" style="stop-color:#3840F7"/></linearGradient><path style="fill:url(#SVGID_00000113327870024187401840000009368032514274057601_);" d="M85.119,570.68l10.438,145.142 c0.387,5.38,4.883,9.536,10.277,9.5l169.189-1.15c5.497-0.037,9.983-4.411,10.159-9.906l4.546-141.831 c0.184-5.73-4.376-10.494-10.109-10.561l-184.173-2.161C89.458,559.643,84.689,564.707,85.119,570.68z"/><path style="opacity:0.75;fill:#FFFFFF;" d="M96.689,587.76l8.727,123.693c0.214,3.031,2.743,5.375,5.781,5.359l157.075-0.817 c3.153-0.016,5.708-2.563,5.735-5.716l1.013-119.406c0.027-3.156-2.49-5.747-5.645-5.813l-166.815-3.47 C99.169,581.519,96.45,584.377,96.689,587.76z"/><path style="opacity:0.75;fill:#FFFFFF;" d="M96.467,571.626L96.467,571.626c0.116,2.318,2.031,4.138,4.352,4.136l63.288-0.054 c2.403-0.002,4.35-1.951,4.35-4.354v-1.662c0-2.451-2.022-4.419-4.472-4.352l-63.288,1.715 C98.255,567.122,96.345,569.186,96.467,571.626z"/><path style="fill:#FFFFFF;" d="M156.844,588.412h1.023c0.884,0,1.606,0.709,1.621,1.593l2.123,122.048 c0.016,0.906-0.715,1.649-1.621,1.649l0,0c-0.879,0-1.598-0.701-1.621-1.579l-3.146-122.048 C155.199,589.163,155.932,588.412,156.844,588.412z"/><g><path style="fill:#FFFFFF;" d="M107.998,596.203l35.996,0.299c1.515,0.013,2.737,1.245,2.737,2.76v0 c0,1.531-1.247,2.77-2.778,2.76l-35.981-0.237c-1.276-0.008-2.38-0.89-2.67-2.133l-0.015-0.063 C104.881,597.85,106.211,596.188,107.998,596.203z"/><path style="fill:#FFFFFF;" d="M116.89,606.551c6.924,0.175,21.162,0.388,27.123,0.473c1.509,0.022,2.718,1.251,2.718,2.76 v0.402c0,1.524-1.236,2.76-2.76,2.76h-26.863c-1.198,0-2.259-0.773-2.627-1.913l-0.282-0.876 C113.614,608.347,114.989,606.503,116.89,606.551z"/><path style="fill:#FFFFFF;" d="M116.304,618.586v0.448c0,1.446,1.172,2.618,2.618,2.618h24.712c1.404,0,2.543-1.139,2.543-2.543 l0,0c0-1.424-1.154-2.578-2.579-2.578h-25.24C117.224,616.532,116.304,617.452,116.304,618.586z"/></g></g><g><path style="opacity:0.73;fill:#FFFFFF;" d="M623.651,380.982l0.008-0.352l-0.423-0.008 c-22.563-18.854-51.584-30.225-83.218-30.225c-31.644,0-60.672,11.378-83.238,30.242l-0.438,0.016l0.007,0.358 c-28.294,23.862-46.314,59.542-46.314,99.366c0,71.673,58.31,129.984,129.983,129.984C611.69,610.363,670,552.052,670,480.379 C670,440.538,651.965,404.844,623.651,380.982z M656.183,523.245l-27.713-0.243c3.509-12.885,5.399-26.494,5.651-40.495 l28.827-0.182l0.844-0.021C663.571,496.669,660.918,510.454,656.183,523.245z M416.243,482.359l23.049,0.172 c0.116,6.607,0.581,13.189,1.43,19.596c0.945,7.095,2.376,14.128,4.241,20.937l-18.103,0.116l-2.991,0.11 C419.129,510.503,416.47,496.722,416.243,482.359z M425.09,434.376l0.426,0.427l20.195,0.167 c-0.187,0.628-0.392,1.246-0.571,1.88c-1.945,6.971-3.428,14.205-4.404,21.506c-0.746,5.603-1.204,11.346-1.39,17.145 l-22.308,0.13l-0.724,0.027C416.861,461.118,419.929,447.222,425.09,434.376z M619.953,522.956l-43.815-0.132 c1.304-12.663,1.982-25.948,2.073-40.066l23.278-0.043l24.294-0.154c-0.212,13.447-2.005,26.507-5.372,38.842 C620.267,521.927,620.103,522.436,619.953,522.956z M620.436,439.063c3.151,11.578,4.926,23.783,5.305,36.342l-47.568-0.132 c-0.197-14.066-1.059-27.347-2.618-40.065l21.023-0.043l22.666-0.156C619.654,436.351,620.061,437.696,620.436,439.063z M559.4,568.218h-38.116c-0.746-1.934-1.463-4.022-2.158-6.822c-1.251-5.055-2.344-9.754-3.345-15.493 c-0.91-5.241-1.689-10.327-2.354-15.876l26.584,0.211l27.25,0.013c-0.649,5.385-1.403,10.603-2.275,15.654 c-0.995,5.774-2.078,9.943-3.308,14.969C560.947,563.86,560.191,566.284,559.4,568.218z M539.998,522.715l-27.39,0.05 c-0.288-2.94-0.55-5.933-0.78-9.005c-0.746-10.055-1.12-20.474-1.138-31.006l29.321,0.075l30.102-0.056 c-0.053,10.365-0.444,20.605-1.197,30.468c-0.246,3.275-0.53,6.445-0.839,9.559L539.998,522.715z M512.59,435.205l27.421,0.076 l27.609-0.057c0.453,3.913,0.869,7.895,1.21,12.051c0.756,9.093,1.166,18.485,1.264,27.975L540,475.167l-29.307,0.05 c0.066-9.931,0.363-18.984,0.906-27.51C511.869,443.393,512.212,439.262,512.59,435.205z M554.809,380.143l-14.81-0.074 l-16.488,0.032c0.59-1.569,1.185-3.043,1.801-4.428c1.169-2.635,2.354-4.89,3.619-6.886c1.555-2.435,3.023-4.19,4.614-5.514 c0.885-0.735,1.764-1.283,2.625-1.634c0.8-0.332,1.636-0.504,2.448-0.504c0.061,0,0.123,0,0.185,0.004 c0.835,0.019,1.732,0.247,2.658,0.665c0.88,0.402,1.791,0.991,2.701,1.745c1.634,1.362,3.161,3.113,4.799,5.502 C551.047,372.136,552.936,375.725,554.809,380.143z M520.974,387.695l19.04,0.038l17.66-0.051 c1.165,3.397,2.262,7.009,3.31,10.966c1.339,5.077,2.507,10.307,3.57,15.992c0.797,4.246,1.483,8.604,2.107,13.057l-26.663-0.081 l-26.627,0.049c0.497-4.338,1.045-8.591,1.686-12.737c0.898-5.786,1.887-11.06,3.026-16.125 C518.99,394.784,519.949,391.125,520.974,387.695z M562.713,380.183c-2.527-6.23-5.037-11.066-7.897-15.197 c-0.572-0.816-1.137-1.562-1.702-2.271c1.204,0.299,2.408,0.595,3.6,0.959c6.303,1.923,12.492,4.795,18.383,8.533 c3.629,2.319,7.169,5.05,10.599,8.09L562.713,380.183z M522.945,364.904c-1.48,2.28-2.857,4.827-4.209,7.785 c-1.036,2.259-2.018,4.703-2.998,7.427l-1.766,0.003c-4.715,0.006-9.432,0.015-14.143,0.054l-11.865,0.09 c3.403-3.016,6.909-5.725,10.496-8.021c5.897-3.747,12.081-6.626,18.378-8.555c2.784-0.852,5.609-1.49,8.448-1.986 C524.503,362.67,523.727,363.71,522.945,364.904z M515.655,577.888c0.345,1.934,0.691,1.921,1.051,2.878 c2.448,6.468,4.908,11.418,7.754,15.666c0.607,0.891,1.21,1.682,1.813,2.445c-3.165-0.51-6.307-1.234-9.402-2.185 c-6.325-1.938-12.504-4.75-18.358-8.462c-4.507-2.879-8.892-6.473-13.095-10.341H515.655z M539.402,599.638 c-0.479-0.077-0.964-0.195-1.471-0.402c-0.836-0.339-1.711-0.877-2.598-1.596c-1.606-1.308-3.101-3.034-4.693-5.413 c-2.474-3.75-4.646-8.202-6.837-14.128c-0.032-0.088-0.062-0.212-0.094-0.212h33.269c-2.144,5.802-4.266,10.257-6.66,13.979 c-1.583,2.429-3.057,4.164-4.638,5.526c-0.879,0.754-1.756,1.322-2.603,1.715c-0.415,0.192-0.824,0.325-1.229,0.432 C541.034,599.605,540.218,599.603,539.402,599.638z M556.561,595.917c2.775-4.244,5.196-9.177,7.624-15.661 c0.293-0.791,0.573-2.368,0.856-2.368h23.166c-4.224,3.868-8.628,7.485-13.146,10.362c-5.862,3.709-12.048,6.543-18.385,8.482 c-0.272,0.083-0.548,0.125-0.821,0.205C556.091,596.6,556.324,596.274,556.561,595.917z M574.553,427.722 c-0.721-4.916-1.536-9.764-2.474-14.542c-1.167-5.878-2.433-11.272-3.873-16.495c-0.883-3.195-1.797-6.18-2.751-9.024 l14.725-0.043l12.834-0.105c3.836,4.201,7.434,8.807,10.691,13.778c5.275,8.061,9.671,16.966,13.154,26.562L574.553,427.722z M499.823,387.626c4.488,0.038,8.976,0.045,13.463,0.051c-0.872,2.959-1.702,6.073-2.497,9.425 c-1.232,5.214-2.313,10.642-3.303,16.6c-0.754,4.541-1.405,9.201-1.992,13.978l-22.064,0.04l-26.645,0.17 c3.471-9.591,7.856-18.493,13.122-26.553c3.271-5.004,6.884-9.636,10.734-13.855L499.823,387.626z M455.152,435.047l49.502,0.136 c-0.398,3.891-0.766,7.849-1.071,11.975c-0.405,5.489-0.716,11.139-0.929,16.796c-0.121,3.415-0.237,7.273-0.291,11.276 l-23.846,0.041l-30.586,0.178c0.166-5.384,0.586-10.738,1.266-15.97c0.92-7.079,2.275-13.939,4.024-20.382 c0.374-1.367,0.779-2.714,1.187-4.057L455.152,435.047z M453.249,521.378c-1.758-6.455-3.116-13.312-4.037-20.379 c-0.788-6.013-1.217-12.198-1.323-18.405l54.471,0.139c0.099,10.744,0.561,21.389,1.404,31.664 c0.235,2.854,0.498,5.64,0.782,8.383l-21.116,0.039l-29.703,0.19C453.572,522.463,453.4,521.928,453.249,521.378z M505.411,530.281c0.752,6.036,1.626,11.867,2.658,17.553c1.082,5.933,2.254,10.249,3.585,15.456 c0.538,2.1,1.095,4.928,1.661,4.928h-34.866c-3.013-1.934-5.865-6.192-8.491-10.208c-5.714-8.73-10.393-17.901-13.993-28.417 L505.411,530.281z M567.385,568.218c0.613-1.934,1.213-3.155,1.792-5.441c1.32-5.223,2.482-10.427,3.551-16.356 c0.99-5.561,1.833-11.079,2.554-16.881h21.297l21.124,0.216c-3.617,10.547-8.313,19.374-14.046,28.118 c-2.623,3.998-5.472,8.41-8.477,10.344H567.385z M634.064,475.438c-0.44-13.326-2.372-26.275-5.781-38.567 c-0.183-0.647-0.391-1.279-0.582-1.922l25.42-0.175l1.961-0.049c5.079,12.755,8.098,26.537,8.64,40.95L634.064,475.438z M607.569,380.408l-10.956-0.055c-0.139-0.142-0.272-0.295-0.412-0.436c-5.349-5.387-11.142-10.06-17.22-13.892 c-4.297-2.696-8.782-4.944-13.374-6.795c17.448,3.681,33.546,11.052,47.453,21.249 C611.23,380.457,609.399,380.428,607.569,380.408z M494.538,365.993c-6.082,3.823-11.88,8.492-17.239,13.879 c-0.153,0.154-0.298,0.321-0.449,0.475l-4.231,0.032c-1.867,0.019-3.733,0.046-5.599,0.067 c9.495-6.955,20.007-12.593,31.277-16.639C497.034,364.512,495.773,365.22,494.538,365.993z M463.742,577.888h10.773 c0.902,1.934,1.803,1.898,2.729,2.831c5.35,5.387,11.152,10.033,17.247,13.875c1.478,0.928,2.979,1.778,4.492,2.607 c-12.873-4.536-24.768-11.093-35.303-19.369C463.701,577.831,463.72,577.888,463.742,577.888z M579.038,594.529 c6.083-3.845,11.877-8.468,17.219-13.855c0.911-0.918,1.797-0.852,2.683-2.786h17.407c-14.844,11.603-32.387,19.972-51.547,23.88 C569.68,599.858,574.451,597.412,579.038,594.529z M652.233,428.115l-26.82-0.234c-3.919-11.161-9.031-21.521-15.292-30.873 c-2.243-3.351-4.638-6.542-7.144-9.577l3.983-0.032c4.469-0.048,8.939-0.095,13.352-0.171l1.114-0.029 C634.336,398.491,644.886,412.404,652.233,428.115z M458.547,387.251l1.096,0.017c3.619,0.059,7.237,0.092,10.856,0.128 c-2.507,3.031-4.903,6.218-7.148,9.564c-6.287,9.375-11.422,19.773-15.363,30.987l-20.168,0.129 C435.154,412.405,445.675,398.525,458.547,387.251z M426.565,529.913l20.539,0.164c4.028,12.164,9.451,22.307,16.195,32.38 c1.592,2.373,3.273,3.827,4.997,5.761h-4.553c-2.021,0-3.665,2.75-3.665,4.776c0,0.286,0.04,1.111,0.102,1.378 C445.797,562.209,434.223,547.386,426.565,529.913z M624.838,569.366c-0.158-0.021-0.315-1.148-0.478-1.148h-19.205 c1.734-1.934,3.424-3.422,5.023-5.812c6.729-10.07,12.137-20.749,16.148-32.899l26.796,0.09l0.371-0.422 C646.739,544.601,636.932,557.973,624.838,569.366z"/></g><g><defs><polygon id="SVGID_00000130625989005448167360000016558561249096794262_" points="254.411,678 822.965,678 785.542,272.007 &#10;&#9;&#9;&#9;&#9;&#9;228.85,291.531 &#9;&#9;&#9;&#9;"/></defs><clipPath id="SVGID_00000032641460173281802230000012788210308050479015_"><polygon points="254.411,678 822.965,678 785.542,272.007 &#10;&#9;&#9;&#9;&#9;&#9;228.85,291.531 &#9;&#9;&#9;&#9;" style="overflow: visible;"/></clipPath><g style="clip-path:url(#SVGID_00000032641460173281802230000012788210308050479015_);"><g><linearGradient id="SVGID_00000004539496668943208450000006716632800537396127_" gradientUnits="userSpaceOnUse" x1="-1667.1157" y1="3173.6096" x2="-1749.3156" y2="3353.9922" gradientTransform="matrix(0.8015 0.5979 -0.5979 0.8015 3732.0044 -1083.2705)"><stop offset="0" style="stop-color:#53D8FF"/><stop offset="1" style="stop-color:#3840F7"/></linearGradient><path style="fill:url(#SVGID_00000004539496668943208450000006716632800537396127_);" d="M398.482,482.164 c0,0,64.882,79.02,88.751,59.979c23.869-19.041-40.572-122.835-40.572-122.835L398.482,482.164z"/><linearGradient id="SVGID_00000173849644832400600040000007215977926448893858_" gradientUnits="userSpaceOnUse" x1="156.669" y1="976.7184" x2="480.1783" y2="976.7184"><stop offset="0" style="stop-color:#CB236D"/><stop offset="1" style="stop-color:#4C246D"/></linearGradient><path style="fill:url(#SVGID_00000173849644832400600040000007215977926448893858_);" d="M401.138,995.243 c0.006-0.387-0.02-0.78-0.119-1.175c-5.86-23.231-34.943-37.701-34.943-37.701l-11.525,0.903 c-6.626,20.476-5.775,33.033-4.71,38.627c0.029,0.156,0.077,0.306,0.119,0.458 C359.466,997.204,379.034,997.759,401.138,995.243z"/><linearGradient id="SVGID_00000098941346656494951500000003325626660913233033_" gradientUnits="userSpaceOnUse" x1="363.5808" y1="917.4897" x2="353.643" y2="1004.22"><stop offset="0" style="stop-color:#F9B776"/><stop offset="1" style="stop-color:#F47960"/></linearGradient><path style="fill:url(#SVGID_00000098941346656494951500000003325626660913233033_);" d="M349.918,940.106l4.881,23.497 c0.358,1.722,1.681,3.011,3.283,3.162c1.961,0.184,4.754,0.292,7.562-0.12c2.518-0.37,4.272-2.929,3.825-5.675l-3.392-20.863 H349.918z"/><linearGradient id="SVGID_00000165945645180775752480000017575688429751629454_" gradientUnits="userSpaceOnUse" x1="483.6215" y1="971.1016" x2="402.4263" y2="1004.7679"><stop offset="0" style="stop-color:#CB236D"/><stop offset="1" style="stop-color:#4C246D"/></linearGradient><path style="fill:url(#SVGID_00000165945645180775752480000017575688429751629454_);" d="M503.224,994.219 c-0.084-0.178-0.157-0.359-0.277-0.527c-6.172-8.624-21.891-25.796-52.952-33.244l-14.901-0.47c0,0-6.635,11.533-6.76,32.895 c3.403,1.391,9.987,2.89,22.715,3.246C470.724,996.669,494.061,994.976,503.224,994.219z"/><linearGradient id="SVGID_00000026880317836576741280000013998841293691887251_" gradientUnits="userSpaceOnUse" x1="444.5315" y1="926.7653" x2="434.5937" y2="1013.4955"><stop offset="0" style="stop-color:#F9B776"/><stop offset="1" style="stop-color:#F47960"/></linearGradient><path style="fill:url(#SVGID_00000026880317836576741280000013998841293691887251_);" d="M432.331,937.395 c0.166,1.11,2.208,17.992,2.999,24.537c0.188,1.555,1.314,2.759,2.735,2.929c2.537,0.303,6.643,0.579,10.235-0.158 c1.938-0.397,3.341-2.259,3.341-4.423v-26.499L432.331,937.395z"/><linearGradient id="SVGID_00000160883221878479692050000011403609209215538338_" gradientUnits="userSpaceOnUse" x1="206.3562" y1="1420.5717" x2="440.3719" y2="632.4878"><stop offset="0" style="stop-color:#2B3582"/><stop offset="1" style="stop-color:#150E42"/></linearGradient><path style="fill:url(#SVGID_00000160883221878479692050000011403609209215538338_);" d="M420.377,629.322 c0,0,35.94,136.585,35.29,308.464c-0.012,3.134-2.212,5.838-5.279,6.484c-4.519,0.952-11.161,2.082-16.661,1.928 c-2.936-0.083-5.389-2.26-5.883-5.154c-5.039-29.552-33.959-196.037-50.436-223.065c0,0-10.841,148.279-7.376,225.206 c0.086,1.913-1.314,3.572-3.216,3.792c-2.885,0.333-7.501,0.587-13.375-0.037c-2.23-0.237-4.029-1.922-4.348-4.142 c-3.589-25.011-24.25-173.886-23.371-281.131c0.049-6.048,15.994-32.344,15.994-32.344H420.377z"/><linearGradient id="SVGID_00000090267123242700138920000010104595900794370972_" gradientUnits="userSpaceOnUse" x1="447.7062" y1="333.7332" x2="167.6461" y2="948.3088"><stop offset="0" style="stop-color:#53D8FF"/><stop offset="1" style="stop-color:#3840F7"/></linearGradient><path style="fill:url(#SVGID_00000090267123242700138920000010104595900794370972_);" d="M445.131,419.977 c-49.461-7.153-103.793-0.59-130.162,2.732c-8.538,1.076-16.347,5.285-21.974,11.796 c-22.313,25.822-71.276,96.518-13.645,167.755c7.375-4.094,17.855-10.659,24.973-18.256 c-6.376-17.974-6.898-40.942,6.464-69.108c0.457,2.232,1.022,4.442,1.708,6.617c18.417,58.347,19.4,106.9,19.358,118.091 c-0.006,1.52,0.907,2.888,2.317,3.453c24.239,9.713,70.898,3.932,86.561,1.598c2.872-0.428,4.804-3.102,4.407-5.978 c-5.51-39.917,13.197-98.288,28.073-136.602C459.089,486.935,448.209,424.222,445.131,419.977z"/><linearGradient id="SVGID_00000183229690336791075370000016811652037175881659_" gradientUnits="userSpaceOnUse" x1="201.084" y1="629.3827" x2="239.8185" y2="719.4403" gradientTransform="matrix(0.9957 0.0924 -0.0924 0.9957 215.7957 -308.0917)"><stop offset="0" style="stop-color:#F9B776"/><stop offset="1" style="stop-color:#F47960"/></linearGradient><path style="fill:url(#SVGID_00000183229690336791075370000016811652037175881659_);" d="M366.296,361.958l-6.829,56.449 c-0.31,2.561,1.265,4.982,3.742,5.706c7.412,2.167,23.279,5.449,37.779-0.518c2.751-1.133,4.272-4.109,3.64-7.017 l-8.633-39.731L366.296,361.958z"/><g><linearGradient id="SVGID_00000061434321730162064700000009625912687716409517_" gradientUnits="userSpaceOnUse" x1="-1878.3821" y1="-465.4703" x2="-1945.7003" y2="-376.4137" gradientTransform="matrix(0.9543 -0.2987 0.2987 0.9543 2335.6013 212.2819)"><stop offset="0" style="stop-color:#F9B776"/><stop offset="1" style="stop-color:#F47960"/></linearGradient><path style="fill:url(#SVGID_00000061434321730162064700000009625912687716409517_);" d="M416.516,324.839 c0.265,0.847-2.155,59.474-2.155,59.474l-33.446-2.093l-5.961-55.907C374.954,326.312,412.078,310.66,416.516,324.839z"/><linearGradient id="SVGID_00000008861079986430666210000006994186145555804040_" gradientUnits="userSpaceOnUse" x1="-1114.2896" y1="-579.3008" x2="-1033.8771" y2="-579.3008" gradientTransform="matrix(0.9543 -0.2987 0.2987 0.9543 1597.7551 584.9109)"><stop offset="0" style="stop-color:#C32B78"/><stop offset="1" style="stop-color:#593092"/></linearGradient><path style="fill:url(#SVGID_00000008861079986430666210000006994186145555804040_);" d="M385.971,333.963 c-1.152,0.95-1.798,2.37-1.757,3.863l0.822,29.247c0.013,0.444,0.081,0.877,0.216,1.3c0.744,2.332,3.71,9.565,11.078,6.132 c6.28-2.927,12.092-5.53,16.666-5.379c2.671,0.088,4.733,2.376,4.612,5.046c-0.248,5.5-0.971,16.587-2.998,26.347 c-0.508,2.446-2.832,4.072-5.311,3.755c-6.54-0.837-19.262-2.854-29.328-6.818c-1.654-0.651-2.809-2.153-3.018-3.918 c-0.923-7.766-3.598-29.523-5.298-35.548c-1.58-5.598-8.967-7.977-12.437-8.798c-1.317-0.312-2.436-1.148-3.104-2.325 c-2.004-3.53-4.737-11.049,4.429-16.025c2.279-1.237,3.099-4.131,1.909-6.435c-2.132-4.129-3.454-10.371,3.849-15.17 c7.393-4.858,14.062-1.917,18.073,1.032c1.775,1.305,4.271,1.393,6.001,0.029c0.769-0.607,1.79-0.918,3.124-0.488 c2.515,0.812,5.158-0.42,5.986-2.929c1.42-4.303,4.823-9.016,12.925-8.939c14.859,0.142,19.083,15.901,16.784,25.906 c-2.299,10.005-18.4,8.935-26.952,5.458C395.959,326.754,389.145,331.345,385.971,333.963z"/><linearGradient id="SVGID_00000057138288527128933980000017136101743045400960_" gradientUnits="userSpaceOnUse" x1="-1217.8589" y1="1192.1987" x2="-1179.1254" y2="1282.2544" gradientTransform="matrix(0.9543 -0.2987 0.2987 0.9543 2335.6013 212.2819)"><stop offset="0" style="stop-color:#F9B776"/><stop offset="1" style="stop-color:#F47960"/></linearGradient><path style="fill:url(#SVGID_00000057138288527128933980000017136101743045400960_);" d="M372.065,368.793 c0,0,3.257-17.605-3.508-20.696c-6.765-3.091-15.469,0.486-11.531,12.223C361.925,374.919,372.065,368.793,372.065,368.793z"/><path style="fill:#FFFFFF;" d="M419.283,329.126c-0.254,0-0.472-0.193-0.497-0.452c-0.027-0.274,0.173-0.518,0.447-0.546l0,0 c0.195-0.02,4.777-0.586,5.553-7.724c0.521-4.8-0.946-10.161-3.651-13.34c-1.548-1.819-3.408-2.836-5.378-2.939 c-0.276-0.015-0.487-0.25-0.473-0.526c0.014-0.276,0.232-0.495,0.526-0.473c2.251,0.119,4.356,1.256,6.087,3.29 c2.917,3.428,4.441,8.961,3.883,14.096c-0.867,7.979-6.393,8.605-6.449,8.61C419.315,329.125,419.299,329.126,419.283,329.126 z"/></g><linearGradient id="SVGID_00000041983353859043950590000011838916398927858059_" gradientUnits="userSpaceOnUse" x1="353.5803" y1="393.9406" x2="275.032" y2="538.2502"><stop offset="0" style="stop-color:#53D8FF"/><stop offset="1" style="stop-color:#3840F7"/></linearGradient><path style="fill:url(#SVGID_00000041983353859043950590000011838916398927858059_);" d="M308.343,510.533 c-9.769-26.736-6.225-59.02-6.188-59.343l2.692,0.308c-0.036,0.317-3.504,31.982,6.043,58.105L308.343,510.533z"/><linearGradient id="SVGID_00000029738073790940639700000012984735399655596936_" gradientUnits="userSpaceOnUse" x1="384.3534" y1="662.597" x2="357.7018" y2="710.028"><stop offset="0" style="stop-color:#2B3582"/><stop offset="1" style="stop-color:#150E42"/></linearGradient><path style="fill:url(#SVGID_00000029738073790940639700000012984735399655596936_);" d="M376.088,714.496 c-0.602,0-1.153-0.404-1.31-1.015c-2.98-11.495-25.298-24.128-25.523-24.254c-0.653-0.366-0.885-1.192-0.519-1.845 c0.366-0.653,1.188-0.886,1.845-0.519c0.96,0.538,23.551,13.327,26.82,25.937c0.188,0.725-0.247,1.464-0.971,1.652 C376.315,714.482,376.2,714.496,376.088,714.496z"/><linearGradient id="SVGID_00000077315191923707224700000010017669047871493822_" gradientUnits="userSpaceOnUse" x1="279.3505" y1="620.1295" x2="364.2123" y2="620.1295"><stop offset="0" style="stop-color:#F9B776"/><stop offset="1" style="stop-color:#F47960"/></linearGradient><path style="fill:url(#SVGID_00000077315191923707224700000010017669047871493822_);" d="M304.323,584.005 c-7.118,7.597-17.598,14.162-24.973,18.256c11.013,13.614,25.916,27.247,45.645,40.59l2.386,5.355 c2.045,4.589,6.513,7.631,11.53,7.871c27.573,1.314,35.203-4.535,9.821-22.237C348.732,633.839,316.27,617.685,304.323,584.005 z"/><linearGradient id="SVGID_00000122723072660378325660000005463993046717943458_" gradientUnits="userSpaceOnUse" x1="-94.4053" y1="3416.7258" x2="-40.53" y2="3416.7258" gradientTransform="matrix(0.5644 0.8255 -0.8255 0.5644 3351.7915 -1366.2622)"><stop offset="0" style="stop-color:#F9B776"/><stop offset="1" style="stop-color:#F47960"/></linearGradient><path style="fill:url(#SVGID_00000122723072660378325660000005463993046717943458_);" d="M507.043,464.351 c0,0-34.792,36.168-42.831,49.289c-8.038,13.121,0.909,37.016,19.17,31.469c18.26-5.547,39.518-68.304,39.518-68.304 L507.043,464.351z"/><g><linearGradient id="SVGID_00000035492308112511904090000013334870932662403473_" gradientUnits="userSpaceOnUse" x1="442.4936" y1="523.6519" x2="509.3028" y2="434.03"><stop offset="0" style="stop-color:#2B3582"/><stop offset="1" style="stop-color:#150E42"/></linearGradient><path style="fill:url(#SVGID_00000035492308112511904090000013334870932662403473_);" d="M448.806,412.982 c0,0,30.575,80.635,40.234,97.41c11.213,19.472,43.961,7.064,42.331-9.232c-1.63-16.296-39.89-83.652-39.89-83.652 L448.806,412.982z"/><linearGradient id="SVGID_00000116237538158899987470000009954086883640103847_" gradientUnits="userSpaceOnUse" x1="555.0074" y1="306.9175" x2="676.6152" y2="523.504"><stop offset="0" style="stop-color:#CB236D"/><stop offset="1" style="stop-color:#4C246D"/></linearGradient><polygon style="fill:url(#SVGID_00000116237538158899987470000009954086883640103847_);" points="490.118,354.243 &#10;&#9;&#9;&#9;&#9;&#9;&#9;&#9;680.151,288.356 678.155,466.658 484.925,423.543 &#9;&#9;&#9;&#9;&#9;&#9;"/><linearGradient id="SVGID_00000039097795047497069130000014687139548028336045_" gradientUnits="userSpaceOnUse" x1="784.4778" y1="334.6295" x2="660.6298" y2="386.2328"><stop offset="0" style="stop-color:#A737D5"/><stop offset="1" style="stop-color:#EF497A"/></linearGradient><ellipse style="fill:url(#SVGID_00000039097795047497069130000014687139548028336045_);" cx="680.33" cy="378.024" rx="18.67" ry="91.631"/><linearGradient id="SVGID_00000072996274773941071130000005121802076768523682_" gradientUnits="userSpaceOnUse" x1="659.6906" y1="379.5121" x2="708.8342" y2="375.0445"><stop offset="0" style="stop-color:#A737D5"/><stop offset="1" style="stop-color:#EF497A"/></linearGradient><path style="fill:url(#SVGID_00000072996274773941071130000005121802076768523682_);" d="M681.747,463.389 c-1.687-1.716-5.363-8.337-8.515-25.457c-3.046-16.545-4.723-38.004-4.723-60.425c0-22.421,1.677-43.88,4.723-60.425 c3.151-17.12,6.828-23.741,8.515-25.457c1.688,1.716,5.364,8.337,8.515,25.457c3.046,16.545,4.723,38.004,4.723,60.425 c0,22.421-1.677,43.88-4.723,60.425C687.111,455.052,683.435,461.672,681.747,463.389z"/><g><defs><path id="SVGID_00000083088858319759278940000015143951550867348668_" d="M681.747,463.389 c-1.687-1.716-5.363-8.337-8.515-25.457c-3.046-16.545-4.723-38.004-4.723-60.425c0-22.421,1.677-43.88,4.723-60.425 c3.151-17.12,6.828-23.741,8.515-25.457c1.688,1.716,5.364,8.337,8.515,25.457c3.046,16.545,27.081,38.004,27.081,60.425 c0,22.421-24.035,43.88-27.081,60.425C687.111,455.052,683.435,461.672,681.747,463.389z"/></defs><clipPath id="SVGID_00000044153129785432708160000013897626055735284158_"><path d="M681.747,463.389 c-1.687-1.716-5.363-8.337-8.515-25.457c-3.046-16.545-4.723-38.004-4.723-60.425c0-22.421,1.677-43.88,4.723-60.425 c3.151-17.12,6.828-23.741,8.515-25.457c1.688,1.716,5.364,8.337,8.515,25.457c3.046,16.545,27.081,38.004,27.081,60.425 c0,22.421-24.035,43.88-27.081,60.425C687.111,455.052,683.435,461.672,681.747,463.389z" style="overflow: visible;"/></clipPath><linearGradient id="SVGID_00000032627062733808458010000008668106905524199042_" gradientUnits="userSpaceOnUse" x1="721.6932" y1="374.4714" x2="589.1541" y2="382.0762"><stop offset="0" style="stop-color:#2B3582"/><stop offset="1" style="stop-color:#150E42"/></linearGradient><path style="clip-path:url(#SVGID_00000044153129785432708160000013897626055735284158_);fill:url(#SVGID_00000032627062733808458010000008668106905524199042_);" d=" M705.677,376.825c0,15.569-8.387,28.19-24.987,28.19c-16.6,0-30.057-12.621-30.057-28.19c0-15.569,13.457-28.19,30.057-28.19 C697.29,348.634,705.677,361.256,705.677,376.825z"/></g><linearGradient id="SVGID_00000136373188527202031940000007014526213853877127_" gradientUnits="userSpaceOnUse" x1="470.6281" y1="421.5612" x2="465.7395" y2="298.5344"><stop offset="0" style="stop-color:#2B3582"/><stop offset="1" style="stop-color:#150E42"/></linearGradient><path style="fill:url(#SVGID_00000136373188527202031940000007014526213853877127_);" d="M459.469,350.411 c8.939-1.038,21.758-1.412,35.619,1.763c-4.566,23.854-3.877,48.716,1.404,74.461l-39.093,0 c-6.233,0-11.547-4.527-12.519-10.684c-1.948-12.341-4.33-33.082-1.79-49.74C444.363,357.85,451.068,351.386,459.469,350.411z "/><path style="fill:#FFFFFF;" d="M482.93,369.134h-30.457c-1.185,0-2.273-0.647-2.839-1.688c-0.566-1.041-0.518-2.305,0.126-3.3 c0.37-0.574,1.137-0.736,1.711-0.366c0.574,0.371,0.737,1.137,0.366,1.711c-0.22,0.341-0.094,0.654-0.029,0.773 c0.064,0.119,0.259,0.396,0.665,0.396h30.457c0.418,0,0.758-0.34,0.758-0.757v-2.167c0-0.418-0.34-0.758-0.758-0.758h-30.684 c-0.683,0-1.237-0.554-1.237-1.237c0-0.683,0.554-1.237,1.237-1.237h30.684c1.783,0,3.233,1.45,3.233,3.232v2.167 C486.162,367.684,484.712,369.134,482.93,369.134z"/><path style="fill:#FFFFFF;" d="M480.214,382.623h-30.457c-1.185,0-2.273-0.646-2.838-1.686 c-0.566-1.041-0.518-2.306,0.125-3.3c0.371-0.575,1.137-0.739,1.711-0.367c0.574,0.371,0.738,1.137,0.367,1.711 c-0.221,0.341-0.094,0.655-0.03,0.774c0.064,0.118,0.258,0.395,0.665,0.395h30.457c0.418,0,0.758-0.34,0.758-0.757v-2.167 c0-0.418-0.34-0.758-0.758-0.758H449.53c-0.683,0-1.237-0.554-1.237-1.237c0-0.683,0.554-1.237,1.237-1.237h30.684 c1.783,0,3.232,1.45,3.232,3.232v2.167C483.446,381.173,481.996,382.623,480.214,382.623z"/><path style="fill:#FFFFFF;" d="M517.731,349.872c-0.524,0-1.012-0.336-1.179-0.862c-0.207-0.652,0.153-1.347,0.804-1.555 l143.928-45.801c0.651-0.208,1.347,0.154,1.555,0.804c0.207,0.651-0.153,1.347-0.804,1.555l-143.928,45.801 C517.982,349.853,517.855,349.872,517.731,349.872z"/><path style="fill:#FFFFFF;" d="M498.269,357.828c-0.488,0-0.951-0.29-1.146-0.769c-0.259-0.632,0.045-1.355,0.677-1.613 l7.407-3.028c0.633-0.259,1.356,0.045,1.613,0.677c0.259,0.632-0.045,1.355-0.677,1.613l-7.407,3.028 C498.583,357.799,498.424,357.828,498.269,357.828z"/><path style="fill:#FFFFFF;" d="M482.93,398.421h-30.457c-1.185,0-2.272-0.647-2.839-1.687 c-0.566-1.041-0.519-2.306,0.125-3.301c0.371-0.575,1.138-0.738,1.711-0.367c0.574,0.371,0.738,1.137,0.367,1.711 c-0.221,0.342-0.094,0.656-0.03,0.774c0.064,0.119,0.259,0.395,0.665,0.395h30.457c0.418,0,0.758-0.34,0.758-0.758v-2.167 c0-0.417-0.34-0.757-0.758-0.757h-30.684c-0.683,0-1.237-0.554-1.237-1.237c0-0.683,0.554-1.237,1.237-1.237h30.684 c1.783,0,3.233,1.45,3.233,3.231v2.167C486.162,396.972,484.712,398.421,482.93,398.421z"/><path style="fill:#FFFFFF;" d="M485.782,415.957h-30.458c-1.185,0-2.272-0.647-2.839-1.688 c-0.566-1.041-0.519-2.305,0.125-3.3c0.371-0.575,1.137-0.739,1.711-0.367c0.574,0.371,0.738,1.137,0.367,1.711 c-0.22,0.341-0.094,0.655-0.03,0.774c0.065,0.119,0.26,0.395,0.665,0.395h30.458c0.417,0,0.757-0.34,0.757-0.757v-2.168 c0-0.417-0.34-0.757-0.757-0.757h-30.685c-0.683,0-1.237-0.554-1.237-1.237c0-0.683,0.554-1.237,1.237-1.237h30.685 c1.781,0,3.232,1.45,3.232,3.232v2.168C489.014,414.507,487.564,415.957,485.782,415.957z"/><path style="fill:#FFFFFF;" d="M512.987,511.296c-1.436,0-2.888-0.155-4.336-0.47c-6.334-1.38-11.492-5.557-14.149-11.46 l-24.334-54.062c-0.28-0.623-0.002-1.355,0.621-1.636c0.622-0.279,1.355-0.002,1.636,0.621l24.334,54.061 c2.332,5.18,6.859,8.845,12.419,10.057c5.461,1.188,10.989-0.223,15.165-3.876c0.228-0.199,0.455-0.404,0.684-0.612 c0.503-0.462,1.286-0.427,1.748,0.077c0.461,0.504,0.427,1.287-0.077,1.748c-0.243,0.223-0.485,0.439-0.726,0.65 C522.308,509.599,517.735,511.296,512.987,511.296z"/><path style="fill:#FFFFFF;" d="M467.699,438.04c-0.472,0-0.923-0.272-1.129-0.73l-2.714-6.031 c-0.28-0.623-0.003-1.356,0.621-1.636c0.621-0.28,1.356-0.002,1.636,0.621l2.714,6.031c0.28,0.623,0.002,1.356-0.621,1.636 C468.042,438.006,467.869,438.04,467.699,438.04z"/><path style="fill:#FFFFFF;" d="M701.226,376.467c-0.643,0-1.186-0.498-1.232-1.149c-0.531-7.486-3.111-13.06-7.669-16.566 c-7.899-6.075-19.266-3.996-19.381-3.973c-0.672,0.126-1.319-0.312-1.448-0.983c-0.128-0.67,0.31-1.319,0.98-1.448 c0.509-0.097,12.548-2.321,21.342,4.43c5.152,3.955,8.06,10.134,8.643,18.363c0.048,0.682-0.465,1.273-1.146,1.322 C701.286,376.466,701.256,376.467,701.226,376.467z"/></g><linearGradient id="SVGID_00000119096120338286418290000014956727408517360059_" gradientUnits="userSpaceOnUse" x1="487.0962" y1="453.6126" x2="519.7874" y2="453.6126"><stop offset="0" style="stop-color:#F9B776"/><stop offset="1" style="stop-color:#F47960"/></linearGradient><path style="fill:url(#SVGID_00000119096120338286418290000014956727408517360059_);" d="M493.87,443.559 c0,0,9.912-8.415,17.659,0c7.747,8.415,9.279,23.099,7.703,23.816C517.655,468.092,469.756,456.199,493.87,443.559z"/></g></g></g><g><g><linearGradient id="SVGID_00000124161771276082368250000014400944583086385585_" gradientUnits="userSpaceOnUse" x1="-694.2219" y1="634.9516" x2="-538.5082" y2="634.9516" gradientTransform="matrix(0.9013 -0.4333 0.4333 0.9013 920.7253 -225.1135)"><stop offset="0" style="stop-color:#A737D5"/><stop offset="1" style="stop-color:#EF497A"/></linearGradient><path style="fill:url(#SVGID_00000124161771276082368250000014400944583086385585_);" d="M625.504,709.295 c-13.448-7.569-26.467-19.653-37.02-31.245c-4.321-4.746-11.666-12.298-12.097-19.453c-0.558-9.281,16.929-8.295,22.593-7.12 c4.373,0.907,9.523,4.619,14.06,3.748c10.712-2.056-1.619-15.678-4.648-18.63c-5.69-5.544-13.486-11.151-16.859-18.8 c-1.554-3.525-1.706-7.023,0.892-10.062c8.023-9.384,17.824-2.57,24.816,3.505c4.674,4.062,13.113,5.039,7.535-3.345 c-5.169-7.77-13.021-13.554-18.661-20.995c-2.647-3.493-7.385-7.706-7.824-12.459c-0.561-6.073,5.001-8.02,9.734-6.846 c6.065,1.504,10.349,6.081,14.464,10.784c4.452,5.089,13.025,9.273,11.55-1.535c-0.894-6.551-3.626-12.369-5.663-18.526 c-1.69-5.107-12.554-33.151,2.881-26.494c3.641,1.57,6.113,5.662,9.281,8.017c6.555,4.871,5.95-2.691,4.647-7.515 c-2.07-7.662-10.686-17.126-6-25.691c4.47-8.164,17.285-4.656,23.962-2.433c8.751,2.913,18,7.124,17.237,18.762 c-0.677,10.334-8.21,19.267-11.694,28.637c-2.101,5.649-6.99,23.019,1.584,24.939c7.584,1.698,12.731-7.912,18.006-11.65 c9.193-6.516,15.813,4.36,16.916,12.722c1.318,9.987-2.687,18.082-8.61,25.453c-3.819,4.753-8.653,8.353-12.903,12.624 c-2.542,2.555-13.084,14.993-3.796,15.251c7.299,0.203,10.434-9.99,17.088-11.246c9.736-1.838,9.471,12.06,5.815,17.568 c-4.258,6.413-11.436,10.053-17.282,14.489c-7.24,5.494-15.581,11.388-20.098,19.791c-5.69,10.586,9.328,2.326,12.302,0.348 c4.916-3.27,13.682-10.173,19.574-5.517c7.325,5.789-2.795,21.166-6.47,26.092c-9.539,12.784-24.025,21.57-39.335,22.911 C641.732,716.229,633.264,713.663,625.504,709.295z"/><path style="fill:#FFFFFF;" d="M645.792,718.448c-0.607,0-1.177-0.37-1.404-0.971c-0.123-0.327-12.243-33.179-5.131-73.746 c0.668-3.81,1.432-8.109,2.261-12.775c3.993-22.48,9.462-53.268,13.084-79.142c5.866-41.905,3.429-47.219,2.543-47.849 c-0.726-0.4-0.985-1.31-0.585-2.036c0.401-0.726,1.317-0.985,2.043-0.586c5.183,2.859,4.534,25.07-14.13,130.138 c-0.829,4.664-1.592,8.96-2.259,12.768c-6.964,39.725,4.863,71.852,4.983,72.171c0.292,0.775-0.1,1.64-0.875,1.932 C646.146,718.417,645.968,718.448,645.792,718.448z"/></g><g><linearGradient id="SVGID_00000150077413098989361050000008016968302411352222_" gradientUnits="userSpaceOnUse" x1="-1515.4457" y1="376.2965" x2="-1424.9985" y2="376.2965" gradientTransform="matrix(-0.9631 -0.2692 -0.2692 0.9631 -645.6392 -100.8258)"><stop offset="0" style="stop-color:#18459F"/><stop offset="1" style="stop-color:#2874B5"/></linearGradient><path style="fill:url(#SVGID_00000150077413098989361050000008016968302411352222_);" d="M630.331,713.128 c0.34-5.103-2.831-11.47-4.246-16.211c-1.517-5.08-3.013-10.169-4.137-15.353c-1.14-5.255-5.272-21.119,4.476-18.002 c4.159,1.33,17.239,13.19,17.024,3.581c-0.276-12.344-13.26-22.729-13.7-35.383c-0.256-7.371,6.772-11.464,13.475-12.475 c11.755-1.772,14.838,21.417,20.305,29.424c1.15,1.684,3.868-30.181,4.199-31.476c0.967-3.776,3.233-10.656,7.297-12.23 c10.948-4.239,13.643,11.993,13.97,18.403c8.906-7.478,3.5-16.056,7.645-25.067c5.301-11.525,14.751,0.909,18.549,6.682 c6.514,9.9,7.217,22.869-3.971,29.89c-10.274,6.448-15.405,10.662-8.932,12.754c8.48,2.741,14.95,12.216,10.26,20.733 c-4.905,8.908-19.012,13.101-28.082,15.962c-3.57,1.126-12.766,0.625-13.69,5.486c-0.773,4.064,5.321,6.178,8.044,7.749 c10.285,5.934,12.385,11.604,0.474,18.202C655.245,729.119,629.599,723.937,630.331,713.128z"/><path style="fill:#FFFFFF;" d="M632.557,720.069c-0.194,0-0.392-0.038-0.582-0.118c-0.763-0.322-1.122-1.201-0.8-1.965 c0.867-2.058,21.469-50.575,41.92-64.946c15.1-10.611,26.931-27.456,28.772-40.964c0.879-6.456-0.472-11.918-4.016-16.235 c-0.526-0.64-0.433-1.586,0.208-2.111c0.64-0.525,1.586-0.433,2.111,0.207c4.095,4.988,5.667,11.227,4.669,18.543 c-1.944,14.272-14.289,31.96-30.02,43.013c-19.752,13.88-40.671,63.16-40.88,63.657 C633.698,719.725,633.142,720.069,632.557,720.069z"/></g></g><g><path style="fill:#FFFFFF;" d="M649.426,226.52c-1.119,0-2.175-0.418-2.997-1.193c-0.889-0.837-1.378-1.97-1.378-3.191V190.65 c0-0.445,0.36-0.805,0.805-0.805c0.445,0,0.805,0.36,0.805,0.805v31.487c0,0.772,0.31,1.49,0.872,2.02 c0.562,0.528,1.293,0.792,2.067,0.75l37.313-2.222c1.464-0.087,2.61-1.303,2.61-2.769V189c0-0.793-0.324-1.523-0.912-2.056 c-0.587-0.532-1.346-0.784-2.137-0.705l-31.039,3.074c-1.001,0.099-1.845,0.707-2.258,1.624c-0.412,0.917-0.306,1.95,0.284,2.765 L665.3,210.04c0.523,0.721,1.333,1.139,2.224,1.147c0.008,0,0.016,0,0.024,0c0.881,0,1.689-0.403,2.218-1.109l13.04-17.375 c0.267-0.356,0.771-0.427,1.127-0.16c0.355,0.267,0.427,0.771,0.16,1.127l-13.04,17.375c-0.845,1.125-2.151,1.777-3.544,1.752 c-1.407-0.012-2.688-0.673-3.513-1.812l-11.839-16.338c-0.932-1.287-1.101-2.92-0.449-4.37s1.986-2.409,3.567-2.566l31.039-3.074 c1.224-0.122,2.46,0.285,3.376,1.114c0.916,0.83,1.441,2.014,1.441,3.249v30.914c0,2.317-1.811,4.239-4.124,4.376l-37.313,2.222 C649.605,226.518,649.515,226.52,649.426,226.52z"/><path style="fill:#FFFFFF;" d="M694.332,238.517h-51.083c-5.095,0-9.229-3.989-9.409-9.081l-1.398-39.253 c-0.175-4.915,3.519-9.175,8.41-9.697l51.073-5.448c2.596-0.281,5.213,0.547,7.182,2.262c1.969,1.715,3.146,4.195,3.228,6.805 l1.407,44.7c0.082,2.57-0.859,5.002-2.648,6.848C699.305,237.5,696.903,238.517,694.332,238.517z M692.948,176.593 c-0.283,0-0.567,0.015-0.852,0.046l-51.073,5.448c-4.055,0.433-7.119,3.964-6.973,8.039l1.398,39.253 c0.151,4.221,3.578,7.528,7.801,7.528h51.083c2.132,0,4.122-0.843,5.606-2.374c1.483-1.531,2.263-3.547,2.196-5.678l-1.407-44.7 c-0.07-2.196-1.02-4.199-2.677-5.641C696.611,177.26,694.825,176.593,692.948,176.593z"/></g><g><g><path style="fill:#FFFFFF;" d="M597.191,146.626c-0.489,0-0.985-0.008-1.492-0.025c-1.078-0.077-1.524-0.66-1.596-1.18 c-0.068-0.5,0.182-1.151,1.091-1.477c2.516-0.901,4.05-2.008,4.12-2.97c-0.021-0.285-0.2-0.74-3.42-1.331 c-3.971-0.729-8.802-2.093-10.932-6.207c-2.207-4.263-1.729-9.688,1.188-13.5c1.118-1.461,2.612-2.748,4.439-3.826 c4.378-2.582,9.534-3.294,13.537-3.626c2.671-0.221,5.82-0.362,8.921,0.276c1.748,0.36,6.086,1.508,8.622,4.395 c3.823,4.35,4.343,9.984,1.428,15.46C620.82,136.895,613.803,146.626,597.191,146.626z M608.055,114.298 c-1.313,0-2.585,0.082-3.763,0.179c-3.79,0.314-8.657,0.979-12.686,3.355c-1.604,0.946-2.906,2.063-3.867,3.319 c-2.418,3.158-2.829,7.831-1,11.364c1.73,3.342,5.995,4.513,9.517,5.16c2.806,0.515,4.96,1.081,5.06,3.25 c0.001,0.026,0.002,0.053,0,0.08c-0.046,1.356-0.967,2.561-2.743,3.598c14.531-0.507,20.716-9.089,22.76-12.928 c3.426-6.434,0.741-11.032-1.164-13.2c-1.483-1.688-4.295-3.092-7.523-3.756C611.121,114.406,609.562,114.298,608.055,114.298z"/><path style="fill:#FFFFFF;" d="M588.863,133.499c-0.362,0-0.711-0.197-0.889-0.54c-0.646-1.247-1.027-2.567-1.133-3.926 c-0.043-0.55,0.369-1.032,0.92-1.075c0.549-0.046,1.032,0.369,1.075,0.919c0.085,1.09,0.392,2.153,0.914,3.161 c0.254,0.49,0.063,1.094-0.428,1.348C589.175,133.462,589.018,133.499,588.863,133.499z"/><path style="fill:#FFFFFF;" d="M588.21,126.623c-0.098,0-0.197-0.015-0.295-0.045c-0.528-0.163-0.824-0.723-0.661-1.25 c0.362-1.173,0.936-2.278,1.706-3.284c0.942-1.231,2.2-2.315,3.737-3.221c3.279-1.934,7.304-3.183,11.334-3.517 c0.551-0.053,1.034,0.364,1.079,0.914c0.045,0.55-0.364,1.034-0.914,1.079c-3.735,0.31-7.458,1.462-10.483,3.246 c-1.315,0.775-2.379,1.688-3.165,2.714c-0.625,0.817-1.091,1.712-1.383,2.658C589.032,126.348,588.637,126.623,588.21,126.623z"/></g><path style="fill:#FFFFFF;" d="M625.843,155.055h-41.971c-4.186,0-7.582-3.277-7.731-7.461l-1.148-32.25 c-0.144-4.039,2.891-7.538,6.91-7.967l41.962-4.477c2.133-0.23,4.283,0.45,5.901,1.858c1.618,1.409,2.585,3.447,2.652,5.591 l1.156,36.726c0.067,2.111-0.706,4.11-2.176,5.627C629.929,154.219,627.956,155.055,625.843,155.055z M624.706,104.177 c-0.232,0-0.466,0.012-0.7,0.037l-41.962,4.477c-3.332,0.356-5.849,3.257-5.729,6.605l1.148,32.251 c0.124,3.468,2.939,6.185,6.409,6.185h41.971c1.752,0,3.387-0.692,4.606-1.951c1.219-1.257,1.859-2.914,1.804-4.665 l-1.156-36.726c-0.057-1.804-0.838-3.449-2.199-4.635C627.715,104.726,626.248,104.177,624.706,104.177z"/></g><g><g><linearGradient id="SVGID_00000027572463504065361280000010291815251385710768_" gradientUnits="userSpaceOnUse" x1="-2960.2402" y1="-1345.4425" x2="-3039.4939" y2="-1393.4751" gradientTransform="matrix(0.963 -0.2696 0.0734 0.9251 3893.9116 590.0477)"><stop offset="0" style="stop-color:#53D8FF"/><stop offset="1" style="stop-color:#3840F7"/></linearGradient><polygon style="fill:url(#SVGID_00000027572463504065361280000010291815251385710768_);" points="888.601,118.708 &#10;&#9;&#9;&#9;&#9;&#9;890.577,136.515 877.667,130.197 &#9;&#9;&#9;&#9;"/><linearGradient id="SVGID_00000085938074080217203070000014151486879875858850_" gradientUnits="userSpaceOnUse" x1="-3004.2268" y1="-1363.2013" x2="-3094.9209" y2="-1459.0991" gradientTransform="matrix(0.963 -0.2696 0.0734 0.9251 3893.9116 590.0477)"><stop offset="0" style="stop-color:#53D8FF"/><stop offset="1" style="stop-color:#3840F7"/></linearGradient><path style="fill:url(#SVGID_00000085938074080217203070000014151486879875858850_);" d="M807.39,117.372l52.771,36.846 c1.01,0.705,2.264,0.969,3.473,0.731c1.209-0.238,2.269-0.958,2.936-1.995l34.998-54.377c0.401-0.623,0.384-1.426-0.043-2.031 c-0.427-0.605-1.178-0.891-1.899-0.722L807.39,117.372z"/><linearGradient id="SVGID_00000010272021272581944040000004584848902925412263_" gradientUnits="userSpaceOnUse" x1="-2966.0269" y1="-1346.2421" x2="-3040.0613" y2="-1391.1115" gradientTransform="matrix(0.963 -0.2696 0.0734 0.9251 3893.9116 590.0477)"><stop offset="0" style="stop-color:#53D8FF"/><stop offset="1" style="stop-color:#3840F7"/></linearGradient><polygon style="fill:url(#SVGID_00000010272021272581944040000004584848902925412263_);" points="888.595,118.71 &#10;&#9;&#9;&#9;&#9;&#9;807.39,117.372 882.974,127.504 883.732,132.418 &#9;&#9;&#9;&#9;"/><linearGradient id="SVGID_00000020371844300502745460000013125726955754420892_" gradientUnits="userSpaceOnUse" x1="385.1754" y1="-1161.1515" x2="419.0062" y2="-1170.95" gradientTransform="matrix(-0.963 0.2696 0.2696 0.963 1586.0095 1146.4915)"><stop offset="0" style="stop-color:#53D8FF"/><stop offset="1" style="stop-color:#3840F7"/></linearGradient><polygon style="fill:url(#SVGID_00000020371844300502745460000013125726955754420892_);" points="879.602,132.691 &#10;&#9;&#9;&#9;&#9;&#9;890.577,136.515 882.974,127.504 &#9;&#9;&#9;&#9;"/></g><g><path style="fill:#CE41A4;" d="M906.246,135.605l4.575-0.163c0.502-0.018,0.924,0.375,0.942,0.877 c0.018,0.502-0.375,0.924-0.877,0.942l-0.017,0l-4.527,0.164l-0.031,0.001c-0.503,0.018-0.926-0.375-0.944-0.878 C905.349,136.046,905.743,135.623,906.246,135.605L906.246,135.605z"/><path style="fill:#CE41A4;" d="M915.387,135.355l4.566-0.032c0.501-0.004,0.91,0.4,0.913,0.901 c0.003,0.501-0.4,0.91-0.901,0.913h-0.01l-4.545,0.035h-0.01c-0.502,0.004-0.912-0.4-0.915-0.901 C914.481,135.769,914.885,135.359,915.387,135.355L915.387,135.355z"/><path style="fill:#CE41A4;" d="M924.516,135.34l4.563,0.063c0.499,0.007,0.898,0.417,0.891,0.917 c-0.007,0.499-0.417,0.898-0.916,0.891l-0.008,0l-4.545-0.06h-0.009c-0.5-0.007-0.9-0.417-0.893-0.917 C923.605,135.733,924.016,135.333,924.516,135.34L924.516,135.34z"/><path style="fill:#CE41A4;" d="M933.643,135.511l4.561,0.152c0.497,0.017,0.887,0.433,0.87,0.93 c-0.017,0.497-0.433,0.887-0.93,0.87l-0.008,0l-4.544-0.149l-0.009,0c-0.498-0.016-0.889-0.433-0.872-0.931 C932.727,135.886,933.144,135.495,933.643,135.511L933.643,135.511z"/><path style="fill:#CE41A4;" d="M942.766,135.86l4.557,0.24c0.495,0.026,0.875,0.449,0.849,0.944 c-0.026,0.495-0.448,0.875-0.944,0.849l-0.008,0l-4.54-0.236l-0.009,0c-0.496-0.026-0.877-0.449-0.851-0.945 C941.846,136.215,942.269,135.834,942.766,135.86L942.766,135.86z"/><path style="fill:#CE41A4;" d="M951.879,136.384l4.554,0.329c0.493,0.036,0.863,0.464,0.828,0.957 c-0.036,0.493-0.464,0.863-0.957,0.828l-0.008-0.001l-4.537-0.325l-0.009-0.001c-0.494-0.035-0.865-0.464-0.83-0.958 C950.956,136.72,951.384,136.348,951.879,136.384L951.879,136.384z"/><path style="fill:#CE41A4;" d="M960.98,137.087l4.545,0.421c0.49,0.045,0.851,0.48,0.805,0.97 c-0.045,0.49-0.48,0.851-0.97,0.805l-0.009-0.001l-4.527-0.416l-0.009-0.001c-0.491-0.045-0.853-0.48-0.807-0.971 C960.054,137.404,960.489,137.042,960.98,137.087L960.98,137.087z"/><path style="fill:#CE41A4;" d="M970.068,137.977l4.538,0.518c0.487,0.056,0.838,0.496,0.782,0.983 c-0.056,0.487-0.496,0.837-0.983,0.782l-0.009-0.001l-4.519-0.513l-0.01-0.001c-0.488-0.055-0.839-0.496-0.784-0.985 C969.138,138.273,969.579,137.922,970.068,137.977L970.068,137.977z"/><path style="fill:#CE41A4;" d="M979.138,139.064l4.523,0.62c0.484,0.066,0.823,0.513,0.757,0.997 c-0.067,0.484-0.513,0.823-0.997,0.757l-0.01-0.001l-4.503-0.615l-0.01-0.001c-0.485-0.066-0.825-0.513-0.759-0.999 C978.205,139.337,978.652,138.998,979.138,139.064L979.138,139.064z"/><path style="fill:#CE41A4;" d="M988.179,140.359l4.51,0.731c0.481,0.078,0.808,0.531,0.73,1.012 c-0.078,0.481-0.531,0.808-1.012,0.73l-0.01-0.002l-4.489-0.724l-0.011-0.002c-0.482-0.078-0.809-0.531-0.732-1.013 C987.243,140.609,987.697,140.281,988.179,140.359L988.179,140.359z"/><path style="fill:#CE41A4;" d="M997.191,141.878l4.49,0.849c0.477,0.09,0.79,0.55,0.7,1.027c-0.09,0.477-0.55,0.79-1.027,0.7 l-0.011-0.002l-4.467-0.842l-0.012-0.002c-0.478-0.09-0.792-0.55-0.702-1.028C996.252,142.102,996.712,141.788,997.191,141.878 L997.191,141.878z"/><path style="fill:#CE41A4;" d="M1006.159,143.639l4.465,0.978c0.473,0.103,0.772,0.57,0.668,1.043 c-0.104,0.473-0.57,0.772-1.043,0.668l-0.012-0.003l-4.44-0.969l-0.013-0.003c-0.473-0.103-0.773-0.571-0.67-1.044 C1005.218,143.836,1005.685,143.536,1006.159,143.639L1006.159,143.639z"/><path style="fill:#CE41A4;" d="M1015.075,145.664l4.433,1.119c0.467,0.118,0.751,0.593,0.633,1.06 c-0.118,0.467-0.592,0.751-1.06,0.633l-0.014-0.004l-4.406-1.109l-0.014-0.004c-0.468-0.118-0.753-0.593-0.635-1.061 C1014.131,145.83,1014.606,145.546,1015.075,145.664L1015.075,145.664z"/><path style="fill:#CE41A4;" d="M1023.923,147.977l4.393,1.274c0.461,0.134,0.727,0.616,0.593,1.078 c-0.134,0.461-0.616,0.727-1.078,0.593l-0.015-0.004l-4.363-1.262l-0.015-0.005c-0.462-0.134-0.729-0.617-0.595-1.079 C1022.977,148.109,1023.46,147.843,1023.923,147.977L1023.923,147.977z"/><path style="fill:#CE41A4;" d="M1032.685,150.608l4.342,1.445c0.454,0.151,0.7,0.642,0.548,1.096 c-0.151,0.454-0.642,0.7-1.096,0.549l-0.017-0.005l-4.309-1.431l-0.017-0.005c-0.455-0.151-0.701-0.643-0.55-1.098 C1031.738,150.703,1032.23,150.457,1032.685,150.608L1032.685,150.608z"/><path style="fill:#CE41A4;" d="M1041.339,153.591l4.276,1.636c0.445,0.17,0.668,0.669,0.498,1.115 c-0.17,0.445-0.669,0.668-1.115,0.498l-0.018-0.007l-4.24-1.619l-0.019-0.007c-0.446-0.171-0.67-0.671-0.499-1.117 C1040.391,153.645,1040.892,153.421,1041.339,153.591L1041.339,153.591z"/><path style="fill:#CE41A4;" d="M1049.852,156.967l4.192,1.849c0.435,0.192,0.632,0.7,0.44,1.134 c-0.192,0.435-0.7,0.632-1.134,0.44l-0.021-0.009l-4.151-1.827l-0.021-0.009c-0.436-0.192-0.633-0.701-0.442-1.136 C1048.907,156.973,1049.415,156.775,1049.852,156.967L1049.852,156.967z"/><path style="fill:#CE41A4;" d="M1058.184,160.78l4.082,2.086c0.422,0.216,0.589,0.732,0.373,1.154 c-0.216,0.421-0.732,0.589-1.154,0.373l-0.023-0.012l-4.037-2.06l-0.023-0.012c-0.422-0.216-0.59-0.733-0.375-1.155 C1057.243,160.732,1057.761,160.564,1058.184,160.78L1058.184,160.78z"/><path style="fill:#CE41A4;" d="M1066.282,165.082l3.94,2.351c0.405,0.242,0.537,0.766,0.296,1.171 c-0.242,0.405-0.766,0.537-1.171,0.296l-0.026-0.015l-3.89-2.318l-0.026-0.015c-0.406-0.242-0.539-0.767-0.297-1.173 C1065.35,164.973,1065.875,164.84,1066.282,165.082L1066.282,165.082z"/><path style="fill:#CE41A4;" d="M1074.075,169.927l3.758,2.645c0.384,0.271,0.476,0.801,0.206,1.186 c-0.271,0.384-0.802,0.476-1.186,0.206l-0.028-0.02l-3.703-2.603l-0.028-0.02c-0.385-0.271-0.478-0.802-0.207-1.188 C1073.158,169.749,1073.69,169.656,1074.075,169.927L1074.075,169.927z"/><path style="fill:#CE41A4;" d="M1081.488,175.324l3.603,2.819c0.369,0.289,0.434,0.822,0.145,1.19 c-0.288,0.369-0.821,0.434-1.19,0.145l-0.012-0.01l-3.579-2.796l-0.012-0.01c-0.37-0.289-0.435-0.823-0.146-1.192 C1080.584,175.101,1081.118,175.035,1081.488,175.324L1081.488,175.324z"/><path style="fill:#CE41A4;" d="M1088.639,181.032l3.488,2.963c0.355,0.302,0.399,0.835,0.097,1.191 c-0.302,0.356-0.835,0.399-1.191,0.097l-0.014-0.011l-3.462-2.937l-0.014-0.012c-0.356-0.303-0.4-0.837-0.098-1.193 C1087.748,180.773,1088.282,180.729,1088.639,181.032L1088.639,181.032z"/><path style="fill:#CE41A4;" d="M1095.548,187.036l3.348,3.125c0.34,0.317,0.358,0.85,0.041,1.19 c-0.317,0.34-0.85,0.358-1.19,0.041l-0.015-0.014l-3.319-3.093l-0.015-0.014c-0.341-0.318-0.36-0.851-0.042-1.192 C1094.673,186.737,1095.207,186.718,1095.548,187.036L1095.548,187.036z"/><path style="fill:#CE41A4;" d="M1102.162,193.373l3.175,3.305c0.321,0.334,0.31,0.865-0.024,1.186 c-0.334,0.321-0.865,0.31-1.186-0.024l-0.017-0.018l-3.143-3.267l-0.017-0.018c-0.322-0.334-0.312-0.866,0.023-1.188 C1101.308,193.027,1101.84,193.038,1102.162,193.373L1102.162,193.373z"/><path style="fill:#CE41A4;" d="M1108.411,200.08l2.959,3.505c0.298,0.353,0.253,0.88-0.099,1.177 c-0.353,0.298-0.88,0.253-1.177-0.1l-0.019-0.022l-2.924-3.459l-0.019-0.022c-0.298-0.353-0.254-0.881,0.099-1.18 C1107.583,199.682,1108.112,199.726,1108.411,200.08L1108.411,200.08z"/><path style="fill:#CE41A4;" d="M1114.2,207.198l2.688,3.73c0.269,0.373,0.184,0.893-0.189,1.162 c-0.373,0.269-0.893,0.184-1.162-0.188l-0.021-0.028l-2.65-3.671l-0.02-0.028c-0.269-0.374-0.185-0.895,0.188-1.164 C1113.409,206.74,1113.93,206.824,1114.2,207.198L1114.2,207.198z"/><path style="fill:#CE41A4;" d="M1119.411,214.773l2.337,3.963c0.233,0.395,0.102,0.903-0.293,1.136 c-0.394,0.232-0.903,0.102-1.135-0.293l-0.021-0.036l-2.297-3.89l-0.021-0.035c-0.233-0.395-0.102-0.904,0.293-1.138 C1118.668,214.246,1119.178,214.377,1119.411,214.773L1119.411,214.773z"/><path style="fill:#CE41A4;" d="M1123.875,222.818l1.892,4.201c0.188,0.416,0.002,0.905-0.414,1.092 c-0.416,0.187-0.905,0.002-1.092-0.414l-0.02-0.045l-1.855-4.109l-0.02-0.044c-0.188-0.417-0.003-0.907,0.414-1.095 C1123.197,222.215,1123.687,222.401,1123.875,222.818L1123.875,222.818z"/><path style="fill:#CE41A4;" d="M1127.397,231.331l1.337,4.414c0.132,0.435-0.114,0.894-0.549,1.026 c-0.435,0.132-0.894-0.114-1.026-0.549l-0.017-0.055l-1.307-4.304l-0.017-0.054c-0.132-0.436,0.114-0.896,0.549-1.028 C1126.804,230.649,1127.264,230.895,1127.397,231.331L1127.397,231.331z"/><path style="fill:#CE41A4;" d="M1129.753,240.249l0.676,4.571c0.066,0.448-0.243,0.864-0.691,0.93 c-0.448,0.066-0.865-0.243-0.931-0.691l-0.009-0.063l-0.661-4.445l-0.009-0.062c-0.067-0.449,0.243-0.866,0.692-0.933 C1129.269,239.49,1129.687,239.8,1129.753,240.249L1129.753,240.249z"/><path style="fill:#CE41A4;" d="M1130.744,249.431l-0.058,4.622c-0.006,0.451-0.376,0.812-0.827,0.806 c-0.451-0.005-0.812-0.376-0.806-0.826l0.001-0.066l0.053-4.489l0.001-0.066c0.005-0.452,0.376-0.814,0.827-0.808 C1130.387,248.608,1130.749,248.978,1130.744,249.431L1130.744,249.431z"/><path style="fill:#CE41A4;" d="M1130.255,258.654l-0.797,4.551c-0.078,0.442-0.499,0.738-0.941,0.661 c-0.443-0.077-0.738-0.499-0.661-0.941l0.011-0.062l0.772-4.425l0.011-0.064c0.077-0.443,0.499-0.74,0.943-0.663 C1130.035,257.788,1130.332,258.21,1130.255,258.654L1130.255,258.654z"/><path style="fill:#CE41A4;" d="M1128.312,267.677l-1.471,4.374c-0.143,0.424-0.602,0.652-1.026,0.51 c-0.424-0.143-0.653-0.602-0.51-1.027l0.018-0.054l1.431-4.264l0.019-0.056c0.143-0.425,0.603-0.654,1.028-0.511 C1128.226,266.792,1128.455,267.252,1128.312,267.677L1128.312,267.677z"/><path style="fill:#CE41A4;" d="M1125.073,276.309l-2.038,4.132c-0.197,0.4-0.681,0.564-1.081,0.367 c-0.4-0.197-0.564-0.681-0.367-1.081l0.022-0.044l1.991-4.043l0.023-0.046c0.197-0.401,0.682-0.566,1.083-0.368 C1125.105,275.423,1125.27,275.908,1125.073,276.309L1125.073,276.309z"/><path style="fill:#CE41A4;" d="M1120.756,284.441l-2.489,3.864c-0.241,0.374-0.739,0.481-1.112,0.241 c-0.374-0.241-0.481-0.738-0.241-1.112l0.022-0.034l2.442-3.795l0.023-0.036c0.241-0.374,0.74-0.482,1.114-0.242 C1120.889,283.568,1120.997,284.066,1120.756,284.441L1120.756,284.441z"/><path style="fill:#CE41A4;" d="M1115.589,292.038l-2.844,3.605c-0.274,0.347-0.778,0.407-1.125,0.133 c-0.347-0.274-0.407-0.778-0.133-1.126l0.021-0.026l2.798-3.552l0.022-0.028c0.274-0.348,0.779-0.408,1.128-0.134 C1115.803,291.184,1115.863,291.689,1115.589,292.038L1115.589,292.038z"/><path style="fill:#CE41A4;" d="M1109.755,299.124l-3.119,3.364c-0.3,0.323-0.805,0.342-1.128,0.043s-0.342-0.805-0.043-1.128 l0.019-0.021l3.077-3.323l0.02-0.022c0.3-0.324,0.806-0.344,1.13-0.043C1110.036,298.293,1110.055,298.799,1109.755,299.124 L1109.755,299.124z"/><path style="fill:#CE41A4;" d="M1103.405,305.738l-3.331,3.144c-0.319,0.302-0.823,0.287-1.124-0.033 c-0.302-0.319-0.287-0.823,0.032-1.124l0.017-0.016l3.294-3.113l0.018-0.017c0.32-0.302,0.824-0.288,1.126,0.032 C1103.739,304.931,1103.725,305.435,1103.405,305.738L1103.405,305.738z"/><path style="fill:#CE41A4;" d="M1096.731,311.971l-3.305,3.127l-0.008,0.007c-0.318,0.301-0.819,0.287-1.12-0.031 c-0.301-0.318-0.287-0.819,0.031-1.12l3.317-3.143c0.318-0.302,0.821-0.288,1.122,0.03c0.302,0.318,0.288,0.821-0.03,1.122 l0,0.001L1096.731,311.971z"/><path style="fill:#CE41A4;" d="M1090.166,318.269l-3.209,3.221l-0.01,0.01c-0.308,0.309-0.807,0.31-1.116,0.002 c-0.309-0.308-0.31-0.807-0.002-1.116l3.225-3.242c0.308-0.31,0.809-0.311,1.118-0.003c0.309,0.308,0.311,0.809,0.003,1.118 l0,0.001L1090.166,318.269z"/><path style="fill:#CE41A4;" d="M1083.809,324.767l-3.075,3.342l-0.013,0.014c-0.294,0.32-0.791,0.34-1.111,0.046 c-0.32-0.294-0.34-0.791-0.047-1.11l3.098-3.371c0.294-0.32,0.793-0.341,1.113-0.047c0.32,0.294,0.341,0.793,0.047,1.113l0,0 L1083.809,324.767z"/><path style="fill:#CE41A4;" d="M1077.747,331.526l-2.879,3.502l-0.017,0.021c-0.274,0.334-0.768,0.382-1.102,0.108 c-0.334-0.275-0.382-0.768-0.108-1.101l2.91-3.545c0.275-0.335,0.769-0.383,1.104-0.109c0.335,0.275,0.383,0.769,0.109,1.104 l0,0L1077.747,331.526z"/><path style="fill:#CE41A4;" d="M1072.122,338.63l-2.579,3.714l-0.022,0.032c-0.246,0.354-0.732,0.441-1.085,0.196 c-0.354-0.246-0.442-0.731-0.196-1.085l2.62-3.778c0.246-0.354,0.733-0.443,1.087-0.197c0.355,0.246,0.443,0.732,0.197,1.087 l0,0L1072.122,338.63z"/><path style="fill:#CE41A4;" d="M1067.173,346.184l-2.103,3.98l-0.028,0.052c-0.2,0.379-0.67,0.524-1.049,0.324 c-0.379-0.2-0.524-0.669-0.324-1.048l2.153-4.083c0.201-0.38,0.671-0.525,1.051-0.325c0.38,0.201,0.526,0.671,0.325,1.051 l0,0.001L1067.173,346.184z"/><path style="fill:#CE41A4;" d="M1063.302,354.29l-1.358,4.267l-0.025,0.079c-0.13,0.407-0.564,0.631-0.97,0.502 c-0.407-0.129-0.631-0.563-0.502-0.97l1.404-4.422c0.129-0.408,0.565-0.633,0.972-0.504c0.408,0.13,0.633,0.565,0.504,0.972l0,0 L1063.302,354.29z"/><path style="fill:#CE41A4;" d="M1061.067,362.935c-0.206,1.473-0.323,2.958-0.352,4.446c-0.008,0.426-0.36,0.764-0.785,0.755 c-0.425-0.008-0.764-0.359-0.755-0.785c0.029-1.548,0.15-3.095,0.363-4.629c0.059-0.422,0.449-0.717,0.871-0.659 C1060.831,362.122,1061.126,362.512,1061.067,362.935L1061.067,362.935z"/><path style="fill:#CE41A4;" d="M1060.884,371.846l0.637,4.438l0.01,0.071c0.06,0.419-0.231,0.808-0.65,0.868 c-0.419,0.06-0.808-0.23-0.868-0.649l-0.661-4.584c-0.061-0.42,0.23-0.809,0.651-0.87c0.42-0.06,0.809,0.231,0.87,0.651v0 L1060.884,371.846z"/><path style="fill:#CE41A4;" d="M1062.544,380.664l1.317,4.314l0.012,0.04c0.123,0.404-0.104,0.831-0.508,0.954 c-0.404,0.123-0.83-0.104-0.954-0.507l-1.345-4.397c-0.124-0.404,0.104-0.832,0.508-0.956c0.404-0.124,0.832,0.104,0.956,0.508 l0,0.001L1062.544,380.664z"/><path style="fill:#CE41A4;" d="M1065.39,389.238l1.674,4.217l0.007,0.017c0.155,0.391-0.036,0.833-0.427,0.988 c-0.391,0.155-0.833-0.036-0.988-0.427l-1.691-4.254c-0.156-0.392,0.035-0.835,0.427-0.991c0.391-0.156,0.835,0.036,0.991,0.427 l0,0L1065.39,389.238z"/><path style="fill:#CE41A4;" d="M1068.827,397.643l1.813,4.176c0.169,0.383-0.005,0.831-0.388,1 c-0.383,0.169-0.832-0.008-1.001-0.392l-1.82-4.184c-0.167-0.385,0.009-0.832,0.394-1c0.385-0.167,0.832,0.009,1,0.394l0,0 L1068.827,397.643z"/><path style="fill:#CE41A4;" d="M1072.335,406.104l1.41,4.376c0.128,0.397-0.09,0.822-0.487,0.95 c-0.397,0.128-0.822-0.09-0.95-0.487l-0.012-0.038l-1.387-4.295l-0.013-0.042c-0.128-0.397,0.09-0.824,0.487-0.952 C1071.78,405.488,1072.206,405.706,1072.335,406.104L1072.335,406.104z"/><path style="fill:#CE41A4;" d="M1074.928,414.917l0.986,4.479c0.089,0.405-0.167,0.807-0.573,0.896 c-0.406,0.089-0.807-0.167-0.896-0.573l-0.006-0.03l-0.976-4.417l-0.007-0.031c-0.09-0.406,0.167-0.808,0.573-0.898 C1074.436,414.253,1074.838,414.51,1074.928,414.917L1074.928,414.917z"/><path style="fill:#CE41A4;" d="M1076.719,423.907l0.635,4.539c0.057,0.41-0.228,0.788-0.638,0.845 c-0.409,0.057-0.788-0.228-0.845-0.638l-0.004-0.027l-0.63-4.483l-0.004-0.028c-0.058-0.41,0.228-0.79,0.639-0.847 C1076.282,423.21,1076.661,423.496,1076.719,423.907L1076.719,423.907z"/><path style="fill:#CE41A4;" d="M1077.823,433.004l0.306,4.57c0.028,0.411-0.283,0.766-0.694,0.794 c-0.411,0.027-0.766-0.283-0.794-0.694l-0.002-0.026l-0.306-4.517l-0.002-0.026c-0.028-0.412,0.283-0.768,0.695-0.796 S1077.795,432.592,1077.823,433.004L1077.823,433.004z"/><path style="fill:#CE41A4;" d="M1078.275,442.153l-0.016,4.582c-0.001,0.41-0.335,0.741-0.745,0.74 c-0.41-0.001-0.741-0.335-0.74-0.745l0-0.026l0.013-4.529v-0.026c0.001-0.411,0.335-0.743,0.746-0.742 C1077.943,441.408,1078.276,441.742,1078.275,442.153L1078.275,442.153z"/><path style="fill:#CE41A4;" d="M1078.081,451.314l-0.34,4.57c-0.031,0.407-0.385,0.713-0.792,0.682 c-0.407-0.03-0.713-0.385-0.683-0.792l0.002-0.026l0.333-4.518l0.002-0.026c0.03-0.408,0.385-0.715,0.794-0.685 C1077.805,450.55,1078.111,450.905,1078.081,451.314L1078.081,451.314z"/><path style="fill:#CE41A4;" d="M1077.236,460.439l-0.669,4.531c-0.06,0.402-0.434,0.68-0.836,0.621 c-0.402-0.06-0.68-0.434-0.621-0.836l0.004-0.026l0.658-4.478l0.004-0.027c0.059-0.403,0.434-0.682,0.837-0.623 C1077.017,459.661,1077.296,460.036,1077.236,460.439L1077.236,460.439z"/><path style="fill:#CE41A4;" d="M1075.732,469.475l-1.003,4.471c-0.089,0.395-0.481,0.644-0.876,0.555 c-0.395-0.089-0.644-0.481-0.555-0.876l0.006-0.026l0.988-4.418l0.006-0.027c0.089-0.396,0.481-0.645,0.877-0.557 C1075.571,468.686,1075.821,469.078,1075.732,469.475L1075.732,469.475z"/><path style="fill:#CE41A4;" d="M1073.558,478.376l-1.339,4.383c-0.118,0.386-0.526,0.603-0.912,0.485 c-0.386-0.118-0.603-0.526-0.485-0.912l0.008-0.026l1.32-4.331l0.008-0.027c0.118-0.387,0.527-0.604,0.913-0.487 C1073.458,477.58,1073.676,477.989,1073.558,478.376L1073.558,478.376z"/><path style="fill:#CE41A4;" d="M1070.713,487.088l-1.673,4.268c-0.147,0.374-0.568,0.558-0.942,0.411 c-0.374-0.147-0.558-0.568-0.411-0.942l0.01-0.026l1.65-4.216l0.01-0.026c0.147-0.375,0.569-0.56,0.944-0.413 C1070.675,486.291,1070.86,486.713,1070.713,487.088L1070.713,487.088z"/><path style="fill:#CE41A4;" d="M1067.202,495.555l-2.001,4.125c-0.174,0.36-0.608,0.51-0.967,0.335s-0.51-0.608-0.335-0.967 l0.012-0.025l1.973-4.075l0.012-0.026c0.175-0.361,0.608-0.511,0.969-0.337C1067.225,494.76,1067.376,495.194,1067.202,495.555 L1067.202,495.555z"/><path style="fill:#CE41A4;" d="M1063.04,503.724l-2.316,3.956c-0.201,0.344-0.643,0.459-0.986,0.258 c-0.344-0.201-0.459-0.643-0.258-0.986l0.014-0.024l2.285-3.91l0.014-0.024c0.201-0.345,0.644-0.461,0.988-0.259 C1063.125,502.936,1063.241,503.379,1063.04,503.724L1063.04,503.724z"/><path style="fill:#CE41A4;" d="M1058.256,511.544l-2.613,3.766c-0.226,0.326-0.673,0.407-0.999,0.181 c-0.326-0.226-0.407-0.673-0.181-0.999l0.015-0.022l2.579-3.723l0.016-0.023c0.226-0.327,0.674-0.408,1.001-0.182 C1058.402,510.769,1058.483,511.217,1058.256,511.544L1058.256,511.544z"/><path style="fill:#CE41A4;" d="M1052.89,518.976l-2.885,3.557c-0.249,0.307-0.699,0.354-1.005,0.105 c-0.307-0.249-0.354-0.699-0.105-1.005l0.016-0.02l2.85-3.518l0.017-0.02c0.249-0.307,0.7-0.355,1.007-0.106 C1053.092,518.217,1053.139,518.668,1052.89,518.976L1052.89,518.976z"/><path style="fill:#CE41A4;" d="M1046.991,525.982l-3.134,3.34c-0.269,0.286-0.719,0.301-1.006,0.032 c-0.286-0.269-0.301-0.719-0.032-1.006l0.017-0.018l3.098-3.305l0.017-0.018c0.269-0.287,0.721-0.302,1.008-0.033 C1047.246,525.243,1047.261,525.695,1046.991,525.982L1046.991,525.982z"/><path style="fill:#CE41A4;" d="M1040.609,532.551l-3.356,3.117c-0.287,0.266-0.735,0.25-1.001-0.037 c-0.266-0.287-0.25-0.735,0.037-1.001l0.017-0.016l3.319-3.087l0.018-0.016c0.287-0.267,0.736-0.251,1.004,0.036 C1040.913,531.834,1040.896,532.284,1040.609,532.551L1040.609,532.551z"/><path style="fill:#CE41A4;" d="M1033.797,538.672l-3.55,2.892c-0.302,0.246-0.746,0.201-0.992-0.101 c-0.246-0.302-0.201-0.746,0.101-0.992l0.017-0.014l3.514-2.867l0.017-0.014c0.303-0.247,0.748-0.202,0.995,0.101 C1034.145,537.98,1034.1,538.425,1033.797,538.672L1033.797,538.672z"/><path style="fill:#CE41A4;" d="M1026.61,544.345l-3.718,2.671c-0.315,0.226-0.754,0.155-0.98-0.161 c-0.226-0.315-0.154-0.754,0.161-0.98l0.016-0.012l3.683-2.649l0.017-0.012c0.316-0.227,0.755-0.155,0.983,0.161 C1026.998,543.678,1026.926,544.118,1026.61,544.345L1026.61,544.345z"/><path style="fill:#CE41A4;" d="M1019.102,549.577l-3.859,2.455c-0.326,0.207-0.758,0.111-0.965-0.214 c-0.207-0.326-0.111-0.758,0.214-0.965l0.016-0.01l3.826-2.437l0.016-0.01c0.326-0.208,0.76-0.112,0.968,0.215 C1019.525,548.936,1019.429,549.369,1019.102,549.577L1019.102,549.577z"/><path style="fill:#CE41A4;" d="M1011.319,554.384l-3.982,2.25c-0.335,0.189-0.759,0.071-0.948-0.264 c-0.189-0.335-0.071-0.759,0.264-0.949l0.015-0.008l3.95-2.235l0.015-0.009c0.335-0.19,0.761-0.072,0.951,0.263 C1011.773,553.768,1011.655,554.194,1011.319,554.384L1011.319,554.384z"/><path style="fill:#CE41A4;" d="M1003.3,558.785l-4.086,2.055c-0.342,0.172-0.758,0.034-0.93-0.308 c-0.172-0.342-0.034-0.759,0.308-0.93l0.014-0.007l4.056-2.043l0.014-0.007c0.343-0.172,0.76-0.035,0.933,0.308 C1003.781,558.195,1003.643,558.612,1003.3,558.785L1003.3,558.785z"/><path style="fill:#CE41A4;" d="M995.082,562.8l-4.17,1.869c-0.348,0.156-0.756,0-0.912-0.347c-0.156-0.348,0-0.756,0.347-0.912 l0.013-0.006l4.142-1.86l0.014-0.006c0.348-0.156,0.758-0.001,0.914,0.348C995.587,562.235,995.431,562.644,995.082,562.8 L995.082,562.8z"/><path style="fill:#CE41A4;" d="M986.702,566.451l-4.245,1.696c-0.352,0.141-0.752-0.031-0.893-0.383 c-0.141-0.352,0.031-0.752,0.383-0.893l0.012-0.005l4.219-1.69l0.013-0.005c0.353-0.141,0.754,0.03,0.895,0.383 C987.227,565.909,987.056,566.31,986.702,566.451L986.702,566.451z"/></g></g><g><linearGradient id="SVGID_00000082347741108960432020000002826517681590440118_" gradientUnits="userSpaceOnUse" x1="-4472.8403" y1="343.1859" x2="-4402.9355" y2="519.0072" gradientTransform="matrix(-0.2643 0.9644 0.9644 0.2643 -534.3116 4719.1011)"><stop offset="0" style="stop-color:#F9B776"/><stop offset="1" style="stop-color:#F47960"/></linearGradient><path style="fill:url(#SVGID_00000082347741108960432020000002826517681590440118_);" d="M994.448,531.461 c-0.22-1.768-15.851-45.487,10.044-47.206c25.895-1.719,17.29,54.697,17.29,54.697l30.458,16.348c0,0,6.668-4.376,8.436-1.443 c1.768,2.934,6.27,3.188,5.891,8.145c-0.379,4.957-4.65,8.032-9.015,8.468C1053.187,570.907,998.591,564.788,994.448,531.461z"/><g><g><linearGradient id="SVGID_00000132080581596026367460000016437456287243228569_" gradientUnits="userSpaceOnUse" x1="4727.0815" y1="1919.896" x2="4654.8984" y2="1976.5742" gradientTransform="matrix(0.9992 -0.0398 0.0398 0.9992 -3784.1516 -1027.0388)"><stop offset="0" style="stop-color:#2B3582"/><stop offset="1" style="stop-color:#150E42"/></linearGradient><path style="fill:url(#SVGID_00000132080581596026367460000016437456287243228569_);" d="M992.536,718.587 c-4.856,0.057-7.387-0.414-8.705-0.893c0.016,0.482,0.039,0.973,0.074,1.481c0.038,0.542,0.458,0.96,0.953,0.937l26.625-1.232 c0.85-0.039,1.307-1.045,0.908-1.809C1008.91,717.499,1000.042,718.498,992.536,718.587z"/><linearGradient id="SVGID_00000097461567741383197100000000237797145148625575_" gradientUnits="userSpaceOnUse" x1="-7605.6436" y1="1933.5859" x2="-7541.771" y2="1912.5253" gradientTransform="matrix(-0.9992 0.0398 0.0398 0.9992 -6667.0674 -911.9293)"><stop offset="0" style="stop-color:#8D55D1"/><stop offset="0.9964" style="stop-color:#1C2873"/></linearGradient><path style="fill:url(#SVGID_00000097461567741383197100000000237797145148625575_);" d="M984.61,708.675 c0.524-2.19,2.465-3.738,4.716-3.757l2.227-0.018c11.95,2.367,18.201,8.672,20.683,11.865c0.048,0.062,0.078,0.13,0.113,0.197 c-3.48,0.427-12.348,1.427-19.854,1.516c-4.856,0.057-7.387-0.414-8.705-0.893C983.662,713.797,984.102,710.799,984.61,708.675 z"/></g><linearGradient id="SVGID_00000077317146632820933990000010227557648859756714_" gradientUnits="userSpaceOnUse" x1="-54.7624" y1="4937.6426" x2="-42.884" y2="4937.6426" gradientTransform="matrix(0.1382 0.9904 0.9904 -0.1382 -3892.4099 1434.3307)"><stop offset="0" style="stop-color:#F9B776"/><stop offset="1" style="stop-color:#F47960"/></linearGradient><path style="fill:url(#SVGID_00000077317146632820933990000010227557648859756714_);" d="M991.771,709.462l-4.252-0.231 c-0.994-0.054-1.831-1.159-1.869-2.468l-0.243-8.373l10.691-1.093l-1.47,9.982C994.668,708.587,992.765,709.516,991.771,709.462 z"/></g><linearGradient id="SVGID_00000168815073061417185300000007428603231285343632_" gradientUnits="userSpaceOnUse" x1="938.3016" y1="685.0644" x2="1024.905" y2="610.693"><stop offset="0" style="stop-color:#CB236D"/><stop offset="1" style="stop-color:#4C246D"/></linearGradient><polygon style="fill:url(#SVGID_00000168815073061417185300000007428603231285343632_);" points="960.481,592.92 &#10;&#9;&#9;&#9;&#9;976.666,629.316 982.888,705 1000.207,705 1010.804,602.634 &#9;&#9;&#9;"/><g><g><linearGradient id="SVGID_00000044166626318184444250000001405642133260809093_" gradientUnits="userSpaceOnUse" x1="4741.6943" y1="1922.4994" x2="4669.5112" y2="1979.1777" gradientTransform="matrix(0.9992 -0.0398 0.0398 0.9992 -3784.1516 -1027.0388)"><stop offset="0" style="stop-color:#2B3582"/><stop offset="1" style="stop-color:#150E42"/></linearGradient><path style="fill:url(#SVGID_00000044166626318184444250000001405642133260809093_);" d="M1007.241,720.607 c-4.856,0.057-7.387-0.414-8.705-0.893c0.016,0.482,0.038,0.973,0.074,1.481c0.038,0.543,0.458,0.96,0.953,0.938l26.625-1.232 c0.85-0.039,1.307-1.045,0.908-1.809C1023.615,719.518,1014.747,720.518,1007.241,720.607z"/><linearGradient id="SVGID_00000126311947644268091010000007738293204153362052_" gradientUnits="userSpaceOnUse" x1="-7620.2563" y1="1936.1893" x2="-7556.3838" y2="1915.1285" gradientTransform="matrix(-0.9992 0.0398 0.0398 0.9992 -6667.0674 -911.9293)"><stop offset="0" style="stop-color:#8D55D1"/><stop offset="0.9964" style="stop-color:#1C2873"/></linearGradient><path style="fill:url(#SVGID_00000126311947644268091010000007738293204153362052_);" d="M999.315,710.695 c0.524-2.19,2.465-3.738,4.716-3.757l2.227-0.018c11.95,2.367,18.2,8.672,20.683,11.865c0.048,0.062,0.078,0.13,0.114,0.197 c-3.48,0.427-12.348,1.427-19.854,1.516c-4.856,0.057-7.387-0.414-8.705-0.893 C998.367,715.817,998.807,712.819,999.315,710.695z"/></g><linearGradient id="SVGID_00000090990869642797905300000006090398381459927689_" gradientUnits="userSpaceOnUse" x1="-50.7298" y1="4951.9272" x2="-38.8515" y2="4951.9272" gradientTransform="matrix(0.1382 0.9904 0.9904 -0.1382 -3892.4099 1434.3307)"><stop offset="0" style="stop-color:#F9B776"/><stop offset="1" style="stop-color:#F47960"/></linearGradient><path style="fill:url(#SVGID_00000090990869642797905300000006090398381459927689_);" d="M1006.476,711.482l-4.252-0.231 c-0.994-0.054-1.831-1.159-1.869-2.469l-0.243-8.373l10.691-1.093l-1.47,9.982 C1009.373,710.607,1007.47,711.536,1006.476,711.482z"/></g><linearGradient id="SVGID_00000039853733560028599330000000241056841712382863_" gradientUnits="userSpaceOnUse" x1="948.3676" y1="629.4962" x2="1025.6323" y2="629.4962"><stop offset="0" style="stop-color:#CB236D"/><stop offset="1" style="stop-color:#4C246D"/></linearGradient><path style="fill:url(#SVGID_00000039853733560028599330000000241056841712382863_);" d="M952.32,553.258 c0,0-10.705,17.053,3.119,33.605c13.824,16.552,30.716,35.531,30.716,35.531l12.581,83.006c11.939,0.753,14.265,0,14.265,0 l12.631-131.909L952.32,553.258z"/><linearGradient id="SVGID_00000028292948227341055210000017893680950846375096_" gradientUnits="userSpaceOnUse" x1="-7491.2217" y1="509.3918" x2="-7506.9272" y2="461.9407" gradientTransform="matrix(-1 0 0 1 -6514.3564 0)"><stop offset="0" style="stop-color:#F9B776"/><stop offset="1" style="stop-color:#F47960"/></linearGradient><path style="fill:url(#SVGID_00000028292948227341055210000017893680950846375096_);" d="M998.029,469.62 c0,0,11.409,13.328,12.62,13.934c-19.993,2.423-47.256-9.693-47.256-9.693s26.319-11.415,27.238-22.118 c5.016,0.242,14.069,6.127,14.069,6.127L998.029,469.62z"/><linearGradient id="SVGID_00000116230573631116427760000010821388767862249883_" gradientUnits="userSpaceOnUse" x1="958.0656" y1="466.4276" x2="1038.0935" y2="667.71"><stop offset="0" style="stop-color:#53D8FF"/><stop offset="1" style="stop-color:#3840F7"/></linearGradient><path style="fill:url(#SVGID_00000116230573631116427760000010821388767862249883_);" d="M1023.574,515.463 c6.058-7.27-10.097-29.283-14.907-33.806c-4.81,1.939-44.57-8.063-44.57-8.063s-10.966,4.309-10.966,17.638 c0,11.615-5.195,59.786-6.531,71.983c-0.08,0.731,0.139,1.463,0.608,2.03c0.469,0.566,1.148,0.919,1.881,0.976 c7.329,0.572,29.779,2.748,75.826,10.433C1052.307,564.94,1028.219,523.338,1023.574,515.463z"/><g><linearGradient id="SVGID_00000034777808730707095260000000925768789395406756_" gradientUnits="userSpaceOnUse" x1="-8760.8438" y1="-397.2177" x2="-8720.0684" y2="-397.2177" gradientTransform="matrix(-0.8548 -0.519 -0.519 0.8548 -6664.0146 -3750.3613)"><stop offset="0" style="stop-color:#2B3582"/><stop offset="1" style="stop-color:#150E42"/></linearGradient><path style="fill:url(#SVGID_00000034777808730707095260000000925768789395406756_);" d="M994.551,455.453 c0,0-3.824,0.263-4.619-1.638c-0.795-1.9,1.517-6.876,2.146-7.911c0.629-1.036,4.779-14.582,8.595-15.808 c3.816-1.227,3.352,1.386,4.229,2.568c0.877,1.182,17.83-3.32,24.715,1.392c6.885,4.712,15.317,17.686-6.202,18.118 C1009.867,452.446,994.551,455.453,994.551,455.453z"/><linearGradient id="SVGID_00000178183965419368432970000009927736776977266861_" gradientUnits="userSpaceOnUse" x1="-8744.3574" y1="-389.1898" x2="-8719.8438" y2="-319.4711" gradientTransform="matrix(-0.8548 -0.519 -0.519 0.8548 -6664.0146 -3750.3613)"><stop offset="0" style="stop-color:#F9B776"/><stop offset="1" style="stop-color:#F47960"/></linearGradient><path style="fill:url(#SVGID_00000178183965419368432970000009927736776977266861_);" d="M1023.414,452.174 c0,0-4.893,35.7-24.039,26.749c-16.51-7.719-4.571-23.211-4.571-23.211s-1.914-1.517-1.063-5.253 c0.851-3.736,5.752-7.139,8.471-3.834c2.719,3.305-0.044,8.243-0.044,8.243s7.053-10.838,10.715-9.087 S1023.414,452.174,1023.414,452.174z"/><path style="fill:#FFFFFF;" d="M1025.716,451.085c-0.057,0-0.093-0.001-0.108-0.001c-0.207-0.005-0.371-0.176-0.367-0.383 c0.005-0.207,0.194-0.374,0.383-0.367c0.063-0.003,5.451,0.078,8.202-3.279c0.132-0.16,0.369-0.183,0.528-0.052 c0.16,0.131,0.184,0.368,0.052,0.528C1031.612,450.941,1026.544,451.085,1025.716,451.085z"/></g><g><linearGradient id="SVGID_00000129904227516099800670000016681469861303217085_" gradientUnits="userSpaceOnUse" x1="-5954.4995" y1="403.5188" x2="-5990.3174" y2="413.3356" gradientTransform="matrix(-0.9995 -0.0308 -0.0308 0.9995 -4926.042 -32.0304)"><stop offset="0" style="stop-color:#2B3582"/><stop offset="1" style="stop-color:#150E42"/></linearGradient><path style="fill:url(#SVGID_00000129904227516099800670000016681469861303217085_);" d="M1020.81,566.334 c0.034,0.001,0.068,0.001,0.102,0l44.449-0.877c1.099-0.021,1.972-0.92,1.951-2.008c-0.021-1.088-0.933-1.969-2.029-1.929 l-44.449,0.877c-1.099,0.021-1.972,0.92-1.951,2.008C1018.905,565.458,1019.758,566.302,1020.81,566.334z"/><linearGradient id="SVGID_00000183244125284429204790000000612081173926780819_" gradientUnits="userSpaceOnUse" x1="-6246.8193" y1="555.3707" x2="-6272.084" y2="582.0737" gradientTransform="matrix(-0.7361 0.0137 0.0186 0.9998 -3551.9175 61.3345)"><stop offset="0" style="stop-color:#2B3582"/><stop offset="1" style="stop-color:#150E42"/></linearGradient><path style="fill:url(#SVGID_00000183244125284429204790000000612081173926780819_);" d="M1088.612,525.124l-27.252,0.508 c-2.01,0.037-3.811,1.631-4.623,4.091l-11.929,36.14l33.868-0.632c1.296-0.024,2.44-1.11,2.886-2.738l9.15-33.407 C1091.24,527.156,1090.148,525.095,1088.612,525.124z"/></g><linearGradient id="SVGID_00000057866687267246797040000014031476002135771294_" gradientUnits="userSpaceOnUse" x1="-4463.603" y1="320.8315" x2="-4393.6982" y2="496.6528" gradientTransform="matrix(-0.2643 0.9644 0.9644 0.2643 -534.3116 4719.1011)"><stop offset="0" style="stop-color:#F9B776"/><stop offset="1" style="stop-color:#F47960"/></linearGradient><path style="fill:url(#SVGID_00000057866687267246797040000014031476002135771294_);" d="M970.448,534.461 c-0.22-1.768-15.851-45.487,10.044-47.206c25.895-1.719,17.29,54.697,17.29,54.697l30.458,16.348c0,0,6.668-4.376,8.436-1.443 c1.768,2.934,6.27,3.188,5.891,8.145c-0.379,4.957-4.65,8.032-9.015,8.468C1029.187,573.907,974.591,567.788,970.448,534.461z"/></g></g></g></svg>